<?xml version="1.0" standalone="no"?>
<!DOCTYPE svg PUBLIC "-//W3C//DTD SVG 1.1//EN" "http://www.w3.org/Graphics/SVG/1.1/DTD/svg11.dtd">
<svg width="322" height="24" viewBox="0 0 322 24" fill="none" xmlns="http://www.w3.org/2000/svg">
<path d="M270.195 4.02919C270.145 3.59216 269.942 3.25362 269.585 3.01356C269.228 2.77043 268.779 2.64886 268.237 2.64886C267.849 2.64886 267.514 2.71041 267.231 2.83352C266.948 2.95355 266.728 3.11974 266.571 3.3321C266.417 3.54138 266.34 3.7799 266.34 4.04765C266.34 4.27232 266.392 4.46621 266.497 4.62933C266.605 4.79244 266.745 4.9294 266.917 5.04019C267.092 5.14791 267.28 5.2387 267.48 5.31257C267.68 5.38335 267.873 5.44183 268.057 5.48799L268.98 5.72805C269.282 5.80191 269.591 5.90194 269.908 6.02812C270.225 6.1543 270.519 6.3205 270.79 6.5267C271.061 6.7329 271.279 6.98835 271.446 7.29304C271.615 7.59772 271.7 7.96242 271.7 8.38714C271.7 8.92265 271.561 9.39815 271.284 9.81363C271.01 10.2291 270.612 10.5569 270.088 10.7969C269.568 11.037 268.939 11.157 268.2 11.157C267.492 11.157 266.88 11.0447 266.363 10.82C265.846 10.5954 265.441 10.2768 265.149 9.86441C264.856 9.44893 264.695 8.95651 264.664 8.38714H266.095C266.123 8.72876 266.234 9.01344 266.428 9.24119C266.625 9.46586 266.875 9.63359 267.18 9.74438C267.488 9.8521 267.825 9.90596 268.191 9.90596C268.594 9.90596 268.953 9.84287 269.267 9.71669C269.584 9.58742 269.833 9.40892 270.015 9.18117C270.196 8.95035 270.287 8.68106 270.287 8.37329C270.287 8.09322 270.207 7.86394 270.047 7.68544C269.89 7.50693 269.676 7.3592 269.405 7.24225C269.137 7.1253 268.834 7.0222 268.496 6.93295L267.379 6.62826C266.621 6.42206 266.021 6.11891 265.578 5.71882C265.138 5.31872 264.918 4.78937 264.918 4.13075C264.918 3.586 265.066 3.11051 265.361 2.70426C265.657 2.29801 266.057 1.98255 266.561 1.75788C267.066 1.53013 267.636 1.41626 268.27 1.41626C268.91 1.41626 269.474 1.52859 269.964 1.75326C270.456 1.97793 270.844 2.28724 271.127 2.68117C271.41 3.07204 271.558 3.52137 271.57 4.02919H270.195Z" fill="#282828"/>
<path d="M275.357 11.157C274.908 11.157 274.501 11.0739 274.138 10.9077C273.775 10.7385 273.487 10.4938 273.275 10.1737C273.066 9.85364 272.961 9.46124 272.961 8.99652C272.961 8.59642 273.038 8.26711 273.192 8.00859C273.346 7.75007 273.553 7.5454 273.815 7.3946C274.077 7.24379 274.369 7.12992 274.692 7.05298C275.015 6.97604 275.345 6.91756 275.68 6.87755C276.105 6.82831 276.45 6.7883 276.714 6.75752C276.979 6.72367 277.171 6.66981 277.291 6.59595C277.411 6.52208 277.471 6.40206 277.471 6.23586V6.20355C277.471 5.80037 277.357 5.48799 277.13 5.2664C276.905 5.04481 276.57 4.93402 276.123 4.93402C275.659 4.93402 275.292 5.03712 275.025 5.24332C274.76 5.44644 274.577 5.67265 274.475 5.92194L273.178 5.62649C273.332 5.19562 273.557 4.84784 273.852 4.58316C274.151 4.31541 274.494 4.12152 274.881 4.00149C275.269 3.87838 275.677 3.81683 276.105 3.81683C276.388 3.81683 276.688 3.85068 277.005 3.91839C277.325 3.98302 277.624 4.10305 277.901 4.27848C278.181 4.4539 278.41 4.70473 278.589 5.03096C278.767 5.35412 278.856 5.77421 278.856 6.29126V11.0001H277.508V10.0306H277.453C277.364 10.2091 277.23 10.3845 277.051 10.5569C276.873 10.7292 276.643 10.8723 276.363 10.9862C276.083 11.1001 275.748 11.157 275.357 11.157ZM275.657 10.0491C276.039 10.0491 276.365 9.97367 276.636 9.82287C276.91 9.67206 277.117 9.47509 277.259 9.23196C277.404 8.98574 277.476 8.7226 277.476 8.44254V7.52848C277.427 7.57772 277.331 7.62388 277.19 7.66697C277.051 7.70698 276.893 7.74237 276.714 7.77315C276.536 7.80085 276.362 7.82701 276.193 7.85163C276.023 7.87317 275.882 7.89164 275.768 7.90703C275.5 7.94088 275.255 7.99782 275.034 8.07784C274.815 8.15786 274.64 8.27327 274.508 8.42407C274.378 8.5718 274.314 8.76877 274.314 9.01498C274.314 9.3566 274.44 9.61512 274.692 9.79055C274.945 9.9629 275.266 10.0491 275.657 10.0491Z" fill="#282828"/>
<path d="M281.964 8.59488L281.955 6.90987H282.195L285.02 3.90916H286.673L283.451 7.32535H283.234L281.964 8.59488ZM280.695 11.0001V1.54552H282.075V11.0001H280.695ZM285.173 11.0001L282.634 7.63004L283.585 6.66519L286.867 11.0001H285.173Z" fill="#282828"/>
<path d="M289.311 6.78984V11.0001H287.931V1.54552H289.293V5.06328H289.381C289.547 4.68165 289.801 4.3785 290.142 4.15383C290.484 3.92916 290.93 3.81683 291.481 3.81683C291.967 3.81683 292.392 3.91685 292.755 4.1169C293.122 4.31695 293.405 4.61548 293.605 5.0125C293.808 5.40644 293.909 5.89886 293.909 6.48977V11.0001H292.529V6.65596C292.529 6.13584 292.395 5.73267 292.127 5.44644C291.86 5.15715 291.487 5.0125 291.01 5.0125C290.684 5.0125 290.392 5.08174 290.133 5.22024C289.878 5.35873 289.676 5.56186 289.528 5.82961C289.384 6.09429 289.311 6.41437 289.311 6.78984Z" fill="#282828"/>
<path d="M297.815 11.157C297.366 11.157 296.959 11.0739 296.596 10.9077C296.233 10.7385 295.945 10.4938 295.733 10.1737C295.524 9.85364 295.419 9.46124 295.419 8.99652C295.419 8.59642 295.496 8.26711 295.65 8.00859C295.804 7.75007 296.011 7.5454 296.273 7.3946C296.535 7.24379 296.827 7.12992 297.15 7.05298C297.473 6.97604 297.803 6.91756 298.138 6.87755C298.563 6.82831 298.908 6.7883 299.172 6.75752C299.437 6.72367 299.629 6.66981 299.749 6.59595C299.869 6.52208 299.929 6.40206 299.929 6.23586V6.20355C299.929 5.80037 299.815 5.48799 299.588 5.2664C299.363 5.04481 299.028 4.93402 298.581 4.93402C298.117 4.93402 297.75 5.03712 297.483 5.24332C297.218 5.44644 297.035 5.67265 296.933 5.92194L295.636 5.62649C295.79 5.19562 296.015 4.84784 296.31 4.58316C296.609 4.31541 296.952 4.12152 297.339 4.00149C297.727 3.87838 298.135 3.81683 298.563 3.81683C298.846 3.81683 299.146 3.85068 299.463 3.91839C299.783 3.98302 300.082 4.10305 300.359 4.27848C300.639 4.4539 300.868 4.70473 301.047 5.03096C301.225 5.35412 301.314 5.77421 301.314 6.29126V11.0001H299.966V10.0306H299.911C299.822 10.2091 299.688 10.3845 299.509 10.5569C299.331 10.7292 299.101 10.8723 298.821 10.9862C298.541 11.1001 298.206 11.157 297.815 11.157ZM298.115 10.0491C298.497 10.0491 298.823 9.97367 299.094 9.82287C299.368 9.67206 299.575 9.47509 299.717 9.23196C299.862 8.98574 299.934 8.7226 299.934 8.44254V7.52848C299.885 7.57772 299.789 7.62388 299.648 7.66697C299.509 7.70698 299.351 7.74237 299.172 7.77315C298.994 7.80085 298.82 7.82701 298.651 7.85163C298.481 7.87317 298.34 7.89164 298.226 7.90703C297.958 7.94088 297.713 7.99782 297.492 8.07784C297.273 8.15786 297.098 8.27327 296.966 8.42407C296.836 8.5718 296.772 8.76877 296.772 9.01498C296.772 9.3566 296.898 9.61512 297.15 9.79055C297.403 9.9629 297.724 10.0491 298.115 10.0491Z" fill="#282828"/>
<path d="M303.153 11.0001V3.90916H304.487V5.03558H304.561C304.69 4.65395 304.918 4.35388 305.244 4.13537C305.573 3.91377 305.946 3.80298 306.361 3.80298C306.447 3.80298 306.549 3.80606 306.666 3.81221C306.786 3.81837 306.88 3.82606 306.948 3.83529V5.15561C306.892 5.14022 306.794 5.12329 306.652 5.10483C306.511 5.08328 306.369 5.07251 306.227 5.07251C305.901 5.07251 305.61 5.14176 305.355 5.28025C305.102 5.41567 304.902 5.60494 304.755 5.84808C304.607 6.08813 304.533 6.36205 304.533 6.66981V11.0001H303.153Z" fill="#282828"/>
<path d="M310.875 11.1432C310.21 11.1432 309.63 10.9908 309.135 10.6861C308.639 10.3815 308.254 9.9552 307.98 9.40738C307.707 8.85956 307.57 8.21941 307.57 7.48693C307.57 6.75137 307.707 6.10814 307.98 5.55724C308.254 5.00634 308.639 4.57855 309.135 4.27386C309.63 3.96917 310.21 3.81683 310.875 3.81683C311.54 3.81683 312.12 3.96917 312.615 4.27386C313.111 4.57855 313.496 5.00634 313.77 5.55724C314.043 6.10814 314.18 6.75137 314.18 7.48693C314.18 8.21941 314.043 8.85956 313.77 9.40738C313.496 9.9552 313.111 10.3815 312.615 10.6861C312.12 10.9908 311.54 11.1432 310.875 11.1432ZM310.88 9.98444C311.31 9.98444 311.667 9.87057 311.951 9.64282C312.234 9.41508 312.443 9.11193 312.578 8.73338C312.717 8.35483 312.786 7.9378 312.786 7.48231C312.786 7.0299 312.717 6.61441 312.578 6.23586C312.443 5.85423 312.234 5.54801 311.951 5.31718C311.667 5.08636 311.31 4.97095 310.88 4.97095C310.446 4.97095 310.086 5.08636 309.799 5.31718C309.516 5.54801 309.305 5.85423 309.167 6.23586C309.031 6.61441 308.964 7.0299 308.964 7.48231C308.964 7.9378 309.031 8.35483 309.167 8.73338C309.305 9.11193 309.516 9.41508 309.799 9.64282C310.086 9.87057 310.446 9.98444 310.88 9.98444Z" fill="#282828"/>
<path d="M321.546 3.90916L318.975 11.0001H317.497L314.921 3.90916H316.403L318.199 9.36583H318.273L320.064 3.90916H321.546Z" fill="#282828"/>
<path d="M265.038 23.0001V13.5455H268.408C269.141 13.5455 269.748 13.6717 270.232 13.9241C270.718 14.1764 271.081 14.5258 271.321 14.972C271.561 15.4152 271.681 15.9276 271.681 16.5093C271.681 17.0879 271.56 17.5972 271.316 18.0374C271.076 18.4744 270.713 18.8145 270.227 19.0576C269.744 19.3007 269.136 19.4223 268.403 19.4223H265.85V18.1943H268.274C268.736 18.1943 269.111 18.1281 269.401 17.9958C269.693 17.8635 269.907 17.6711 270.042 17.4187C270.178 17.1664 270.245 16.8632 270.245 16.5093C270.245 16.1523 270.176 15.843 270.038 15.5814C269.902 15.3198 269.688 15.1197 269.396 14.9812C269.107 14.8397 268.727 14.7689 268.256 14.7689H266.464V23.0001H265.038ZM269.705 18.7344L272.041 23.0001H270.416L268.126 18.7344H269.705Z" fill="#282828"/>
<path d="M276.273 23.1432C275.575 23.1432 274.973 22.9939 274.468 22.6954C273.967 22.3938 273.579 21.9706 273.305 21.4258C273.034 20.878 272.899 20.2363 272.899 19.5008C272.899 18.7745 273.034 18.1343 273.305 17.5803C273.579 17.0263 273.96 16.5939 274.45 16.2831C274.942 15.9723 275.518 15.8168 276.176 15.8168C276.576 15.8168 276.964 15.883 277.34 16.0153C277.715 16.1477 278.052 16.3554 278.351 16.6386C278.649 16.9217 278.885 17.2895 279.057 17.7419C279.229 18.1912 279.316 18.7375 279.316 19.3807V19.8701H273.679V18.836H277.963C277.963 18.4728 277.889 18.1512 277.741 17.8712C277.594 17.588 277.386 17.3649 277.118 17.2018C276.853 17.0387 276.543 16.9571 276.186 16.9571C275.798 16.9571 275.459 17.0525 275.17 17.2433C274.884 17.4311 274.662 17.6773 274.505 17.982C274.351 18.2836 274.274 18.6113 274.274 18.9653V19.7731C274.274 20.2471 274.358 20.6503 274.524 20.9827C274.693 21.3151 274.928 21.569 275.23 21.7444C275.532 21.9167 275.884 22.0029 276.287 22.0029C276.549 22.0029 276.787 21.966 277.003 21.8921C277.218 21.8152 277.404 21.7013 277.561 21.5505C277.718 21.3997 277.838 21.2135 277.921 20.9919L279.228 21.2273C279.123 21.612 278.936 21.949 278.665 22.2383C278.397 22.5246 278.06 22.7477 277.654 22.9077C277.251 23.0647 276.79 23.1432 276.273 23.1432Z" fill="#282828"/>
<path d="M286.71 15.9092L284.139 23.0001H282.661L280.085 15.9092H281.567L283.363 21.3658H283.437L285.228 15.9092H286.71Z" fill="#282828"/>
<path d="M288.007 23.0001V15.9092H289.388V23.0001H288.007ZM288.704 14.8151C288.464 14.8151 288.258 14.735 288.086 14.575C287.916 14.4119 287.832 14.218 287.832 13.9933C287.832 13.7656 287.916 13.5717 288.086 13.4116C288.258 13.2485 288.464 13.167 288.704 13.167C288.944 13.167 289.149 13.2485 289.318 13.4116C289.491 13.5717 289.577 13.7656 289.577 13.9933C289.577 14.218 289.491 14.4119 289.318 14.575C289.149 14.735 288.944 14.8151 288.704 14.8151Z" fill="#282828"/>
<path d="M294.301 23.1432C293.602 23.1432 293 22.9939 292.496 22.6954C291.994 22.3938 291.606 21.9706 291.332 21.4258C291.061 20.878 290.926 20.2363 290.926 19.5008C290.926 18.7745 291.061 18.1343 291.332 17.5803C291.606 17.0263 291.988 16.5939 292.477 16.2831C292.97 15.9723 293.545 15.8168 294.204 15.8168C294.604 15.8168 294.992 15.883 295.367 16.0153C295.743 16.1477 296.08 16.3554 296.378 16.6386C296.677 16.9217 296.912 17.2895 297.084 17.7419C297.257 18.1912 297.343 18.7375 297.343 19.3807V19.8701H291.706V18.836H295.99C295.99 18.4728 295.916 18.1512 295.769 17.8712C295.621 17.588 295.413 17.3649 295.146 17.2018C294.881 17.0387 294.57 16.9571 294.213 16.9571C293.825 16.9571 293.487 17.0525 293.197 17.2433C292.911 17.4311 292.69 17.6773 292.533 17.982C292.379 18.2836 292.302 18.6113 292.302 18.9653V19.7731C292.302 20.2471 292.385 20.6503 292.551 20.9827C292.72 21.3151 292.956 21.569 293.257 21.7444C293.559 21.9167 293.911 22.0029 294.315 22.0029C294.576 22.0029 294.815 21.966 295.03 21.8921C295.246 21.8152 295.432 21.7013 295.589 21.5505C295.746 21.3997 295.866 21.2135 295.949 20.9919L297.255 21.2273C297.151 21.612 296.963 21.949 296.692 22.2383C296.424 22.5246 296.087 22.7477 295.681 22.9077C295.278 23.0647 294.818 23.1432 294.301 23.1432Z" fill="#282828"/>
<path d="M300.399 23.0001L298.312 15.9092H299.739L301.128 21.1165H301.198L302.592 15.9092H304.018L305.403 21.0935H305.473L306.853 15.9092H308.279L306.197 23.0001H304.789L303.349 17.8804H303.243L301.802 23.0001H300.399Z" fill="#282828"/>
<circle cx="250.5" cy="12.5" r="5.5" fill="#CC723B"/>
<path d="M12.2251 24C8.74642 24 5.83095 22.876 3.47869 20.6281C1.15956 18.3471 0 15.4711 0 12C0 8.52893 1.15956 5.65289 3.47869 3.40496C5.79782 1.12397 8.71329 0 12.2251 0C14.6105 0 16.6977 0.528926 18.5199 1.55372V5.22314C16.6315 4 14.5442 3.40496 12.2582 3.40496C9.83973 3.40496 7.78564 4.23141 6.16225 5.85124C4.53886 7.47108 3.74374 9.52066 3.74374 12C3.74374 14.4793 4.57199 16.562 6.19538 18.1818C7.8519 19.8017 9.90599 20.595 12.3908 20.595C15.0081 20.595 17.2278 19.9008 19.0168 18.4793V22.1488C17.0953 23.3719 14.8424 24 12.2251 24Z" fill="#3D109D"/>
<path d="M20.3617 3.7686V0.429752H39.3455V3.7686H31.6592V23.5702H28.0149V3.7686H20.3617Z" fill="#3D109D"/>
<path d="M45.6294 23.5702H41.985V0.429752H51.9573C54.3758 0.429752 56.2642 1.05785 57.6226 2.31405C59.014 3.53719 59.7098 5.15702 59.7098 7.1405C59.7098 9.15703 59.014 10.8099 57.6226 12.0992C56.2642 13.3884 54.3758 14.0165 51.9573 14.0165H45.6294V23.5702ZM45.6294 3.7686V10.6777H51.6591C54.4089 10.6777 56.0323 9.42149 56.0323 7.20661C56.0323 4.99174 54.4089 3.7686 51.6591 3.7686H45.6294Z" fill="#3D109D"/>
<path d="M61.7949 23.5702H57.9187L68.0566 0.297521H71.5684L81.7063 23.5702H77.7969L75.279 17.8182H64.2797L61.7949 23.5702ZM69.7793 4.89256L65.5387 14.6116H74.02L69.7793 4.89256Z" fill="#3D109D"/>
<path d="M87.6273 23.5702H83.983V0.429752H87.6273V9.55372H99.7199V0.429752H103.364V23.5702H99.7199V12.8926H87.6273V23.5702Z" fill="#3D109D"/>
<path d="M109.52 23.5702H105.643L115.781 0.297521H119.293L129.431 23.5702H125.521L123.004 17.8182H112.004L109.52 23.5702ZM117.504 4.89256L113.263 14.6116H121.745L117.504 4.89256Z" fill="#3D109D"/>
<path d="M172.154 23.5702H168.509V0.429752H172.22L179.741 10.843L187.195 0.429752H190.839V23.5702H187.195V5.98347L180.735 14.7107H178.614L172.154 5.98347V23.5702Z" fill="#3D109D"/>
<path d="M198.382 23.5702H195.267V0.429752H198.912V17.4215L211.667 0.429752H214.847V23.5702H211.203V6.5124L198.382 23.5702Z" fill="#3D109D"/>
<path d="M222.92 23.5702H219.275V0.429752H229.247C231.666 0.429752 233.554 1.05785 234.913 2.31405C236.304 3.53719 237 5.15702 237 7.1405C237 9.15703 236.304 10.8099 234.913 12.0992C233.554 13.3884 231.666 14.0165 229.247 14.0165H222.92V23.5702ZM222.92 3.7686V10.6777H228.949C231.699 10.6777 233.323 9.42149 233.323 7.20661C233.323 4.99174 231.699 3.7686 228.949 3.7686H222.92Z" fill="#3D109D"/>
<path d="M142.181 24H139V0H142.723V17.6229L155.751 0H159V24H155.277V6.30857L142.181 24Z" fill="#3D109D"/>
</svg>