<svg width="377" height="198" viewBox="0 0 377 198" fill="none" xmlns="http://www.w3.org/2000/svg">
<g clip-path="url(#clip0_751_125)">
<path d="M31.6 18C31.8 18.1 32.1 17.9 32.2 17.8C32 17.7 31.7 17.8 31.6 18Z" fill="#E9ECF1"/>
<path d="M29.9 19.7995C30.1 19.9995 30.4 19.8995 30.5 19.7995C30.4 19.1995 30.1 19.4995 29.9 19.7995Z" fill="#E9ECF1"/>
<path d="M40 14.2996C40 14.1996 39.9 14.1996 39.9 14.0996C39.9 14.1996 39.9 14.2996 40 14.2996Z" fill="#E9ECF1"/>
<path d="M29.5 21.4997C29.2 21.3997 28.9 21.5997 28.8 21.7997C29.1 21.7997 29.4 22.1997 29.5 22.4997C29.9 22.2997 30.2 21.1997 29.5 21.4997Z" fill="#E9ECF1"/>
<path d="M82.3 12.5998C82.3 12.5998 82.1 12.5998 82 12.5998C82.4 13.0998 83 12.7998 83.6 12.7998C83.3 12.7998 83.1 13.0998 82.8 13.0998C83.9 13.5998 85.8 14.0998 86.7 12.5998C85.9 13.0998 84.9 11.3998 84.9 12.5998C84.9 12.2998 84.4 12.0998 84.4 11.7998C84.2 11.7998 84.2 12.0998 84.2 12.2998C83.8 12.4998 83.4 12.1998 83 12.0998H82.8C82.9 12.0998 82.9 12.0998 83 12.0998C82.6 12.2998 82.1 11.7998 81.9 12.2998C82.1 12.3998 82.3 12.3998 82.3 12.5998Z" fill="#E9ECF1"/>
<path d="M78.5 13.9997C78.5 14.0997 79 14.2997 79.1 14.2997C79 14.0997 78.9 13.9997 78.8 13.8997C79 13.9997 79.4 13.7997 79.1 14.1997C79.5 14.3997 79.9 14.4997 80.3 14.4997V13.9997C80.5 13.9997 80.8 13.9997 80.8 13.7997C80.7 14.1997 81 14.3997 81.4 14.1997C81.5 14.2997 82.1 14.0997 81.7 14.4997C81.1 14.3997 80.4 14.4997 79.9 14.8997C80.6 14.8997 81.1 14.8997 81.7 14.9997C81.3 14.9997 81.1 15.2997 80.7 15.2997C80.8 15.3997 80.8 15.4997 81 15.4997C80.8 15.4997 80.7 15.3997 80.6 15.2997H80.5C80.5 15.2997 80.5 15.2997 80.6 15.2997C80.5 15.0997 80.3 14.9997 80.1 15.2997C80 16.0997 80.6 16.0997 81.3 15.9997C81.3 16.1997 81.1 16.1997 80.8 16.1997H81.3C81.3 16.1997 81.3 16.3997 81.3 16.6997C81.3 16.4997 81.5 16.4997 81.8 16.4997V15.9997C82.3 15.5997 82.6 14.9997 82.7 14.3997C83 14.3997 83.2 14.4997 83.5 14.4997C83.4 14.4997 83.3 14.4997 83.3 14.5997C83.4 14.6997 83.5 14.7997 83.6 14.8997H84.3C84.4 14.4997 84 14.3997 83.7 14.4997C83.8 14.4997 84 14.3997 84.1 14.2997C83.2 14.2997 82.7 13.5997 82 13.2997C82.5 13.0997 81.8 13.0997 82 12.7997C81.8 12.9997 81.3 12.4997 81.1 12.7997C80.9 13.2997 81.6 13.4997 81.6 13.9997C81.4 13.7997 80.9 13.4997 80.9 13.0997C80.7 13.0997 80.3 12.8997 80.2 13.1997C80.1 13.0997 80 12.9997 79.9 12.9997C80 12.9997 80.1 12.8997 80.2 12.7997C79.7 12.5997 79.5 12.9997 79 12.7997C78.2 12.8997 78.8 13.5997 79.2 13.4997C79.2 13.6997 78.7 13.6997 79 13.9997C78.9 14.0997 78.9 14.0997 78.9 14.1997C78.8 14.0997 78.7 13.9997 78.6 13.8997C78.2 13.7997 78.5 13.6997 78.5 13.9997Z" fill="#E9ECF1"/>
<path d="M43.8 9C43.7 9 43.7 9 43.6 9.1C43.7 9.1 43.8 9.1 43.8 9Z" fill="#E9ECF1"/>
<path d="M40.8 14.6997C40.8 14.6997 40.7 14.6997 40.6 14.6997C40.7 14.5997 40.7 14.6997 40.8 14.6997Z" fill="#E9ECF1"/>
<path d="M35.5 65.4004C35.3 65.4004 35.5 65.6004 35.5 65.8004C36.8 65.1004 37.9 66.7004 38.7 67.4004L38.5 67.7004C38.8 67.7004 39.1 67.7004 39.4 67.8004C39.6 67.7004 39.8 67.7004 40.1 67.7004C39 66.4004 37.4 64.4004 35.5 65.4004Z" fill="#E9ECF1"/>
<path d="M40.1 68.8002C40.3 69.4002 40.5 69.1002 40.8 69.1002C40.6 68.8002 40.3 68.7002 40.1 68.8002Z" fill="#E9ECF1"/>
<path d="M38.4 68.8001C37.7 69.0001 38.9 69.4001 39.2 69.2001C39 69.0001 38.6 68.7001 38.4 68.8001Z" fill="#E9ECF1"/>
<path d="M42.4 68.1996C41.9 67.3996 41.3 68.4996 40.8 67.5996L40.6 67.8996C40.6 68.1996 40.8 68.1996 41.1 68.4996C41.1 68.6996 41.1 68.7996 41 68.9996C41.3 69.1996 41.5 69.5996 41.8 69.5996C42 69.2996 41.6 68.9996 42 69.0996C42.4 69.0996 42.8 69.0996 43.2 69.0996C42.8 68.7996 42.8 68.1996 42.4 68.1996Z" fill="#E9ECF1"/>
<path d="M38.8 28.7001C38.7 29.0001 38.7 28.5001 38.8 28.7001Z" fill="#E9ECF1"/>
<path d="M35.5 65.7998C35.4 65.7998 35.4 65.8998 35.3 65.8998C35.5 65.8998 35.5 65.7998 35.5 65.7998Z" fill="#E9ECF1"/>
<path d="M84.6 15.0002L84.8 14.8002L83.4 14.7002C84.7 15.7002 83.2 15.1002 83.4 15.6002C83.6 15.6002 84.1 15.4002 84.3 15.4002V15.9002C84.5 15.4002 85 15.5002 85.4 15.4002C85.3 15.3002 84.8 15.5002 84.6 15.0002Z" fill="#E9ECF1"/>
<path d="M39.9 30.3002C39.7 30.3002 39.5 30.3002 39.2 30.3002L39.4 30.0002C39.2 29.0002 38.3 29.0002 37.6 28.7002C37.4 29.5002 37.4 30.5002 36.7 31.0002C36.9 31.0002 37.2 30.7002 37.4 30.5002V31.3002C38.1 31.0002 38.3 30.5002 38.8 30.0002C38.8 30.8002 39.5 30.5002 39.7 30.8002C39.9 30.8002 39.9 30.5002 39.9 30.3002Z" fill="#E9ECF1"/>
<path d="M38.1 31.7999C38.1 32.0999 38.3 32.0999 38.6 32.0999C38.8 31.8999 39.1 31.5999 39.2 31.2999C38.8 31.2999 38.5 31.0999 38.1 31.7999Z" fill="#E9ECF1"/>
<path d="M44.1 69.0996C43.8 69.0996 43.8 69.0996 43.8 69.3996H44.5C44.5 69.0996 44.2 69.0996 44.1 69.0996Z" fill="#E9ECF1"/>
<path d="M40.1 31.5996C39.7 31.5996 39.8 32.1996 39.9 32.3996C39.9 32.2996 40.6 31.6996 40.1 31.5996Z" fill="#E9ECF1"/>
<path d="M33.9 68.9002C34 68.8002 33.9 68.8002 33.9 68.7002C33.9 68.8002 33.9 68.9002 33.9 68.9002Z" fill="#E9ECF1"/>
<path d="M89.4 52V52.5H89.5C89.4 52.4 89.4 52.2 89.4 52Z" fill="#E9ECF1"/>
<path d="M89.5 55.4002C89 55.1002 88.5 55.1002 88 54.7002C88.3 55.6002 89 55.4002 89.5 55.4002Z" fill="#E9ECF1"/>
<path d="M82.1 45.9002C82.1 45.8002 82.1 45.8002 82.1 45.7002C82 45.8002 82 45.9002 82.1 45.9002Z" fill="#E9ECF1"/>
<path d="M83.2 53.4004C83.2 53.3004 83.2 53.2004 83.3 53.1004C83.1 52.8004 83.1 52.4004 83.4 52.1004V51.9004C82.9 52.5004 81.2 51.5004 81.7 52.5004C82.2 52.4004 82.7 53.4004 83.2 53.4004Z" fill="#E9ECF1"/>
<path d="M93 47.2002C92.7 47.3002 92 47.4002 93.1 47.4002C93 47.4002 93 47.3002 93 47.2002Z" fill="#E9ECF1"/>
<path d="M103.8 63.7002C103.9 63.5002 103.9 63.3002 103.9 63.2002C103.8 63.3002 103.8 63.5002 103.8 63.7002Z" fill="#E9ECF1"/>
<path d="M93.9 55.1004C93.5 54.9004 93.3 55.5004 92.9 55.5004C92.9 55.8004 92.9 55.8004 92.9 56.0004C93.3 56.0004 93.5 55.5004 93.9 55.1004Z" fill="#E9ECF1"/>
<path d="M79.1 51.2C79.4 51.2 79.7 51.1 79.9 50.9C79.6 50.3 80.1 49.5 79.6 49C79.4 49.2 79.2 49.3 79 49.3C79.3 49.8 78.8 50.6 79.1 51.2Z" fill="#E9ECF1"/>
<path d="M89.6 12.8004C89.4 12.8004 88.8 12.7004 88.7 12.9004C88.9 12.9004 89.3 13.0004 89.6 12.8004Z" fill="#E9ECF1"/>
<path d="M90.3 24.4998C90.3 24.2998 90.2 24.2998 90.1 24.2998L90.3 24.4998Z" fill="#E9ECF1"/>
<path d="M97.8 26.4997C98.3 26.7997 98.2 26.2997 98.6 26.1997C98.5 25.6997 97.8 25.5997 97.5 25.9997C97.8 26.0997 97.8 26.2997 97.8 26.4997Z" fill="#E9ECF1"/>
<path d="M87.4 14.3003C87.5 14.4003 87.7 14.4003 87.8 14.3003C87.7 14.3003 87 14.0003 86.9 14.3003C87 14.3003 87.4 14.2003 87.4 14.3003Z" fill="#E9ECF1"/>
<path d="M79.5 48.8998C79.5 48.2998 79.5 47.7998 79.5 47.2998C79.5 47.7998 79 48.0998 79.1 48.5998C79.3 48.6998 79.5 48.6998 79.5 48.8998Z" fill="#E9ECF1"/>
<path d="M79.4 34.6998C79.5 34.2998 79.5 34.2998 79.3 34.2998C79.2 34.3998 79.1 34.3998 79 34.4998C79.2 34.4998 79.3 34.6998 79.4 34.6998Z" fill="#E9ECF1"/>
<path d="M84.1 22.9998H84.3C84.3 22.8998 84.2 22.8998 84.1 22.9998Z" fill="#E9ECF1"/>
<path d="M102.7 26.1004C102.9 26.6004 103.3 26.0004 102.8 25.8004L102.4 25.4004C101.9 25.8004 102.6 25.9004 102.7 26.1004Z" fill="#E9ECF1"/>
<path d="M78.8 34.4997C78.5 34.3997 78.3 34.4997 78.3 34.9997L78.8 34.4997Z" fill="#E9ECF1"/>
<path d="M42.3 24.7002C42.2 24.7002 41.9 24.7002 41.9 25.0002C42.2 24.7002 42.4 25.2002 42.3 24.7002Z" fill="#E9ECF1"/>
<path d="M62.4 26H62.9L62.7 26.3C64.1 26.6 64.5 24.8 65.9 24.5V24C66.3 24 66.6 24.2 66.8 24.5C67 24.5 67 24.2 67 24C68.1 24.9 68.8 23.2 69.9 23.3C70.3 23 70.8 22.8 71.3 22.7C70.4 22.2 69.2 21.7 68.3 22.7C68.3 22.4 68.1 22.4 67.8 22.4C68.3 22.4 68.3 22.1 68.7 22.1H67.8V21.6C68.2 21.6 69 21.6 69.1 21.1C69.6 21.5 70.2 21.8 70.7 22.1L70.9 21.8C70.9 22.1 71.1 22.1 71.4 22.1C71.6 20.6 70 20.1 68.9 19.8C69.1 19.8 69.4 19.8 69.4 19.5C69.2 19.3 69 19.2 68.7 19.2L70.1 18.4V18.9C69.9 18.9 69.7 18.9 69.5 18.9C69.7 19.6 70.2 18.9 70.5 19.1L70.4 19C71 19.2 71.7 19.1 72.2 18.7C72 18.5 71.8 18.4 71.5 18.4V18.7L71 18.2C71.7 17.4 72.1 18.2 72.8 18.2L72.3 17.7C72.1 17.7 72.1 17.7 72.1 18C71.6 18 71.9 17.2 71.4 17.2H72.5C72.5 16.9 72.5 16.7 72.3 16.7L72.5 16.4C71.8 15.9 71.1 16.4 70.7 15.6C71.6 15.6 72.2 15.2 73.1 15.5C73 15.4 73 15.2 73 15.1C72.5 15.4 72.1 14.8 71.6 14.6H72.5C72.5 14.5 72.4 14.4 72.3 14.4C72.2 14.4 72.1 14.3 72.1 14.3C72.1 13 71.9 13 71.9 14.3C71.7 14.3 71.5 14.4 71.4 14.4L71.2 14.7C71.3 13.9 71.8 13.2 72.6 12.9H72.1C72.3 12.9 72.3 12.6 72.3 12.4H73.2V11.9C73 11.9 72.8 11.9 72.6 11.9C72.6 11.7 72.4 11.7 72.1 11.7C72.1 11.9 72.2 11.9 72.3 11.9C72.1 12 71.9 12.1 71.8 12.3C71.6 10.9 73.4 11.9 73.9 11.3H72.8C74 11.4 75.2 10.9 76 10C75.1 9.4 73.9 9.5 73 10.3C72.6 10.5 72 9.5 72.1 10.3C71.9 10.3 71.9 10.3 71.9 10C71.7 10 71.2 10.3 71 10.3C70.8 10.8 70.4 11.1 69.9 11.1C70.4 10.6 71 10.6 71 9.6C70.1 9.7 69.1 10 68.2 10.4C68.4 9.9 68.9 9.9 69.3 9.9C68.5 9.6 67.6 9.5 66.8 9.6C67.9 9.5 69 9.4 70 9.4C70.5 9.1 70.9 9.4 71.4 8.9C71 8.3 70.1 8.2 69.6 8.6C69.4 8.6 69.4 8.3 69.1 8.3C69.3 8 69.6 8.6 69.6 8H69.1C68.9 7.5 68.4 7.5 68 7.5L67.8 7.8C66.7 7.6 65.7 7.5 64.6 7.5V7.6C63.9 7.6 63.9 8.1 63.2 7.9C63.2 8.4 62.7 7.9 62.7 8.2C62.7 8.7 63.2 8.2 63.4 8.5C62.7 8.8 62 8.6 61.4 8.4C61.5 8.4 61.5 8.5 61.6 8.5C60.8 7.8 60.2 8.7 59.3 8.5C59.4 8.6 59.5 8.7 59.5 8.7C59.3 8.5 59.1 8.4 58.8 8.4C58.3 8.8 59.2 8.6 59.5 8.7C60.2 9.3 61.3 8.2 62 9.2C61.7 9.2 61.5 9.1 61.3 8.9L61.1 9.2C60.4 8.7 60 8.9 59.3 8.9C59.3 9 59.4 9 59.4 9.1C59 9 58.5 9 58.1 9.1C58.3 9.1 58.6 9.1 58.6 9.5C59 9.6 59.4 10 59.7 9.5C59.7 9.5 59.8 9.5 59.8 9.6V10.3C59.2 10.3 58.6 10 58.2 9.5H56.6C56.8 9.8 57.1 9.8 57.3 10C56.6 10.8 55.7 9.7 55.2 10.5C55.2 8.9 53.4 9.6 52.5 10.2C51.7 10.1 51.3 10.6 51.5 11.5C51.3 11 50.8 11.2 50.4 11.2V11.5C49.6 11.7 48.8 12.1 48.1 12.5C48.6 13 49 12.8 49.5 12.8L49.7 12.5C49.7 13 49 13.3 49 13.8C47.9 14.3 46.2 14.1 45.3 15.3C45.8 15.8 46.2 15.3 46.7 15.6L46.5 15.9C47.2 16.4 47.9 15.1 48.6 16.2C47.9 15.9 47 16.5 46.3 16.5C46.1 17.3 47.1 16.9 47.4 17C47.2 17 46.7 17 46.9 17.5C47.1 17.9 47.6 17.6 48.1 17.7C48.1 17.6 48.1 17.6 48.1 17.5C49.5 17.5 51.8 16.5 52.5 18.5H53C53 19.2 53.5 19.8 53.7 20.5C53.6 20.6 53.4 20.7 53.3 20.7C53.4 20.7 53.6 20.7 53.7 20.6C53.7 21 53.7 21.4 53.5 21.7L53.7 22C54.2 21.7 54.6 21.7 54.8 21.5C54.8 21.8 54.8 22 54.6 22C55 22 55.4 22.2 55.7 22.5V23C55.2 22.2 54.3 22.5 53.6 22.5C53.7 22.7 53.9 22.9 54.2 23C53.6 22.8 53.2 23.1 53.6 23.7C54.1 23.7 54.6 23.8 55 23.8C55.2 23.1 54.4 23.5 54.3 23.1C54.8 23.3 55.4 23.3 55.9 23.3C55.9 23.3 55.9 23.3 55.9 23.4C55.7 23.4 55.5 23.2 55.5 23.5C55.6 23.5 55.7 23.5 55.8 23.5C55.2 24.6 53.4 24.9 53.8 26.3H54C53.9 26.4 54.1 26.8 53.8 26.8C54.3 27.3 54 28.1 54.7 28.6V28.1H55.2V28.9H54.7V29L54.9 28.7C54.8 30 56.8 31 57.6 31.7C58.6 32.6 59.7 30.5 59.7 29.7L59.5 29.4C60.3 29.1 60.8 28.2 60.6 27.4L60.4 27.1C61.4 27.3 60.8 26 62.2 26.3L62.4 26ZM52.7 10.6V10.2C52.9 10.3 53.1 10.5 53.2 10.7C53.1 10.6 52.9 10.6 52.7 10.6Z" fill="#E9ECF1"/>
<path d="M71.3 18.4004C71.4 18.7004 72.1 18.5004 72.3 18.5004C72 18.4004 71.5 18.1004 71.3 18.4004Z" fill="#E9ECF1"/>
<path d="M72.8 13.5C72.6 13.5 72.3 13.5 72.3 13.7C72.3 13.7 72.5 13.7 72.5 13.6C72.8 13.8 72.8 13.8 72.8 13.5Z" fill="#E9ECF1"/>
<path d="M16.8 39.7998C17.1 40.8998 16.1 40.0998 16.8 39.7998Z" fill="#E9ECF1"/>
<path d="M16.5 42.8004C16.4 42.6004 16.4 42.4004 16.4 42.2004H16.2L16.4 41.5004C16.3 41.4004 16 41.8004 16 41.8004C16.1 41.7004 16.2 41.7004 16.1 41.5004C15.5 41.2004 15.7 42.1004 16 42.2004C16.2 42.4004 16.2 43.2004 16.7 42.9004C16.7 42.9004 16.4 42.9004 16.5 42.8004Z" fill="#E9ECF1"/>
<path d="M68.1 21.9V22C68.2 22.1 70.1 22.2 69.3 21.5C68.9 21.7 68.5 21.8 68.1 21.9Z" fill="#E9ECF1"/>
<path d="M71 20.6004C71.4 21.0004 71.4 20.0004 71 20.0004C71.1 20.0004 71.2 20.0004 71.2 19.9004C70.9 19.5004 70.5 19.7004 70 19.7004C70.2 19.7004 70.4 19.8004 70.6 19.9004C70.4 19.9004 70.1 19.9004 70 19.9004C70.3 20.3004 70.7 20.3004 71 20.6004Z" fill="#E9ECF1"/>
<path d="M53.3 20.9002C53.4 20.9002 53.6 20.8002 53.6 20.7002C53.5 20.7002 53.4 20.8002 53.3 20.9002Z" fill="#E9ECF1"/>
<path d="M43.5 25.8997C43.4 25.7997 43.1 25.9997 43.4 26.1997C43.8 26.4997 44.1 25.6997 43.5 25.8997Z" fill="#E9ECF1"/>
<path d="M42 26.6998C42.2 27.0998 42.8 26.7998 43.1 26.3998C43.1 26.1998 43.1 25.9998 43.1 25.7998C43.1 25.7998 42.8 25.5998 42.7 25.7998C42.3 25.6998 41.8 26.3998 42 26.6998Z" fill="#E9ECF1"/>
<path d="M42.9 25H42.4V25.5C42.9 25.8 42.4 25 42.9 25Z" fill="#E9ECF1"/>
<path d="M48.2 17.4004C48.2 17.5004 48.3 17.5004 48.4 17.5004C48.3 17.4004 48.2 17.4004 48.2 17.4004Z" fill="#E9ECF1"/>
<path d="M52.2 42.6004C52.2 42.3004 52.2 42.1004 52.5 42.1004C52.2 41.9004 51.8 41.9004 51.5 42.1004C51.5 42.0004 51.5 42.0004 51.5 41.9004C51.2 42.2004 51 41.9004 51 41.7004L51.3 41.4004C51 41.4004 50.7 41.5004 50.6 41.7004C50.9 41.2004 51.1 40.8004 51.3 40.3004C51.4 39.8004 51.1 40.4004 50.9 40.1004C50.1 41.3004 49.8 42.7004 49 43.8004C49.7 43.8004 50.3 43.7004 50.9 43.4004C50.9 43.7004 50.9 43.7004 50.6 43.7004H51.3C51 44.0004 50.8 44.3004 50.5 44.3004C51 44.5004 51.3 43.7004 51.8 43.4004V44.2004L52.1 43.9004C52.1 44.2004 52.1 44.2004 52.1 44.4004L52.6 43.8004C52.6 43.5004 52.6 43.3004 52.4 43.3004C52.6 43.3004 52.7 43.0004 52.7 42.8004C52.7 43.1004 52.4 43.3004 52.2 43.6004C51.7 43.4004 52.5 43.1004 52.2 42.8004C52.4 42.8004 52.5 42.5004 52.7 42.5004L52.2 42.6004Z" fill="#E9ECF1"/>
<path d="M98.1 91.9004C97.4 91.7004 97.6 92.4004 97.2 92.7004V92.4004C95.5 93.1004 95.8 93.4004 96.1 94.9004C95.4 95.9004 95.6 97.2004 95.2 98.2004C97.7 99.3004 97.4 94.9004 98.6 93.7004C98.6 93.2004 98.4 92.4004 98.8 91.9004C98.8 92.2004 98.8 92.2004 99 92.2004C99 92.0004 99 91.7004 99 91.5004C99 91.4004 99.2 91.2004 99.2 91.2004C99 90.7004 99 90.2004 98.7 89.9004C98.6 90.6004 97.9 91.1004 98.1 91.9004Z" fill="#E9ECF1"/>
<path d="M113.2 74.5996C113.1 75.1996 113 75.7996 113 76.4996C113.1 77.6996 114.1 76.6996 113.7 75.5996C113.5 75.1996 113.4 74.6996 113.2 74.5996Z" fill="#E9ECF1"/>
<path d="M118.4 73.1996C118.4 72.9996 118.7 72.1996 118.5 72.0996C118.4 72.3996 118.4 72.7996 118.4 73.1996Z" fill="#E9ECF1"/>
<path d="M49.3 26.2996C49.1 26.2996 48.8 26.2996 48.8 26.5996C48.8 26.2996 48.8 26.0996 49 26.0996H48.3V25.5996C47.6 25.8996 47.2 25.2996 46.5 25.0996C46.7 24.8996 46.8 24.5996 46.7 24.2996C46.7 24.7996 46.9 24.2996 47.2 24.5996L47.4 24.2996C47.2 23.9996 46.7 24.7996 46.7 23.9996C46.7 23.6996 46.7 23.6996 46.9 23.6996C46.9 23.3996 46.9 23.1996 46.7 23.1996L46.2 23.6996C46 23.6996 45.9 23.6996 45.7 23.6996C45.2 23.6996 45.9 23.4996 46.1 23.4996C46 23.5996 45.8 23.5996 45.7 23.6996C45.9 23.6996 46.1 23.6996 46.1 23.4996C46.3 23.3996 46.5 23.2996 46.3 22.9996C46.1 22.6996 45.6 23.2996 45.4 22.6996V22.9996C45.4 22.8996 45.4 22.6996 45.4 22.5996C45.1 21.9996 44.7 22.1996 44.5 22.1996L44.3 22.4996V21.9996C44.1 22.7996 43.8 22.2996 43.6 21.9996V21.4996H42L42.2 21.7996C42.2 22.0996 42 22.0996 41.7 22.0996L41.5 21.7996C41.5 22.2996 40.9 21.8996 40.8 22.1996C40.8 21.7996 41.2 21.4996 41 20.9996C40.5 21.2996 41 20.1996 40.5 20.4996C40 20.7996 39.1 20.4996 38.9 21.2996L39.1 21.5996H38.6C38.4 22.0996 38.8 22.3996 38.8 22.5996C38.6 22.2996 38.3 22.8996 38.1 22.8996V21.8996C38.1 21.0996 39 21.3996 39 20.5996C38 20.2996 37.2 21.2996 36.5 21.8996C36.5 22.3996 36.7 23.1996 36.3 23.6996C36.8 23.9996 37.2 23.3996 37.4 23.9996C37.2 23.9996 36.7 23.6996 36.5 24.2996C37.4 25.0996 38.8 24.5996 39.9 25.0996L39.7 24.7996H41.3C41.1 24.4996 41.5 24.2996 41.1 24.2996C41.5 24.2996 42.1 24.0996 42 24.7996H42.7V24.9996L42.9 25.2996L43.1 24.9996V25.4996C45.1 25.5996 43.5 27.2996 42.9 27.9996H43.4C43.4 28.4996 43.2 28.4996 42.9 28.4996C42.2 28.1996 41.5 28.9996 40.8 29.2996C41.1 29.3996 41.4 29.4996 41.7 29.4996C41.7 28.9996 41.9 29.2996 42.2 29.2996C42.2 29.7996 42.4 29.2996 42.7 29.5996C42.7 29.0996 42.9 29.5996 43.2 29.2996C43.5 29.5996 43.9 29.7996 44.3 29.7996C44.3 30.0996 44.1 30.0996 43.8 30.0996C43.8 30.3996 44 30.3996 44 30.5996H44.9V30.9996C45.4 30.9996 45.8 30.9996 46.3 31.2996L46.5 30.9996C46.3 30.4996 45.8 30.1996 45.4 29.6996C46.1 29.9996 46.8 29.6996 47.2 30.4996C47.2 29.9996 47.2 29.7996 47.7 29.4996C47.2 28.9996 47 28.4996 46.3 28.1996C46.3 27.8996 46.3 27.8996 46.5 27.8996C46.3 27.8996 46 27.3996 45.8 27.3996H46.3V26.9996C46.5 26.9996 46.6 26.9996 46.7 26.8996C46.7 27.0996 47.2 27.2996 47 27.4996C47.1 27.3996 47.3 27.2996 47.5 27.1996C47.3 27.4996 47.5 27.9996 47.7 28.1996H48.2C48.2 27.3996 48.7 27.6996 49.1 27.1996C48.9 26.6996 49.8 26.8996 49.3 26.3996C49.3 26.4996 49.3 26.4996 49.3 26.2996ZM38.7 23.4996C38.6 23.3996 38.5 23.6996 38.3 23.4996H38.7ZM38.7 23.4996C38.3 23.4996 38.7 22.7996 38.3 22.9996V22.7996H39C39.2 23.0996 38.8 23.1996 38.7 23.4996Z" fill="#E9ECF1"/>
<path d="M65.5 2.2002C-10.2 2.2002 -10.2 123.9 65.5 123.9C141.3 123.9 141.2 2.2002 65.5 2.2002ZM112.8 48.3002C112.4 49.0002 111.8 48.0002 111.1 48.2002C110.7 48.4002 111.1 49.0002 110.7 49.2002C109.8 47.7002 111.8 47.6002 112.8 48.3002ZM108.8 27.5002L109 27.8002H108.7C108.7 27.7002 108.7 27.6002 108.8 27.5002ZM108 30.0002C108.7 30.0002 108.7 29.0002 109.1 29.0002V28.0002C109.3 28.3002 109.6 28.7002 109.8 29.0002C109.4 30.3002 108.1 30.9002 107.1 29.7002C107.3 29.8002 107.8 29.5002 108 30.0002ZM41.3 10.1002C41.9 10.0002 42.4 10.3002 42.6 10.9002C42.4 10.4002 41.8 10.1002 41.3 10.1002ZM43.1 11.6002C43.3 12.1002 43.8 11.9002 44 11.9002C43.5 12.2002 42.9 11.6002 42.4 12.2002H43.1C42.7 12.4002 42.2 12.4002 41.7 12.5002C42.4 12.1002 42.8 11.2002 43.8 11.4002C43.3 11.4002 43.1 11.4002 42.9 11.9002L43.1 11.6002ZM42.4 13.4002C42.3 13.5002 42.2 13.5002 42.1 13.6002C42.2 13.5002 42.3 13.4002 42.4 13.4002ZM41.2 10.2002C41.3 10.2002 41.4 10.3002 41.5 10.4002C41.3 10.4002 41.1 10.4002 40.8 10.4002L41.2 10.2002ZM38.3 11.9002C38.4 11.9002 38.5 11.9002 38.6 11.9002C38.5 11.9002 38.3 12.0002 38.2 12.0002L38.3 11.9002ZM21.1 30.3002H21.8C21.6 30.1002 21.2 29.9002 20.9 30.0002L21.2 29.6002C21.7 29.4002 22.2 29.3002 22.7 29.3002C22.6 29.3002 22.4 29.4002 22.3 29.8002C22.8 29.8002 23.2 29.5002 23.4 30.1002C23 30.1002 23.5 30.6002 23.2 30.6002C23 30.6002 22.7 30.6002 22.7 30.3002C22.4 30.3002 22.2 30.5002 22.2 30.8002H22.3C22 30.9002 21.8 31.3002 21.5 31.3002C21.7 31.0002 22 30.8002 22.2 30.8002C21.5 30.3002 21.5 31.6002 20.8 31.3002C20.8 30.8002 21 30.8002 21.3 30.5002C21.3 30.3002 21.3 30.3002 21.1 30.3002ZM24.5 33.8002C24.1 34.0002 24 33.5002 23.9 33.2002C24.6 34.3002 25.7 33.5002 26.3 32.8002C26.5 33.1002 26.8 32.5002 26.8 33.1002C26.5 33.1002 26.3 33.6002 25.8 33.3002V33.8002C24.9 34.3002 24 35.6002 22.8 34.6002H23.7C23.6 34.1002 24.3 34.1002 24.5 33.8002ZM18.8 43.4002H18.5C18.6 43.3002 18.7 43.3002 18.8 43.4002ZM119.1 70.4002C105.2 159.3 -12.5 121.6 15.8 40.4002C15.8 40.5002 15.9 40.8002 16 40.8002C16 40.6002 15.9 40.4002 15.8 40.3002L15.9 40.1002C16.1 40.2002 15.8 40.8002 16.2 40.8002C16.6 40.4002 16.1 40.2002 16 39.8002L16.1 39.6002C16.3 39.8002 16.3 39.5002 16.2 39.4002L16.3 39.1002C16.3 39.2002 16.3 39.2002 16.3 39.3002C16.5 39.6002 16.1 39.8002 16.3 40.1002C16.5 39.8002 16.5 39.6002 16.8 39.6002L17 39.9002C17 40.2002 16.9 40.4002 16.8 40.7002C17 41.0002 17.3 40.4002 17.5 40.7002C17.1 41.2002 17.4 41.6002 17.7 42.1002C17.7 42.2002 17.6 42.3002 17.7 42.4002C17.9 42.4002 17.9 42.4002 17.9 42.5002C17.9 42.4002 17.9 42.2002 17.9 42.2002L17.8 42.1002C17.8 42.0002 17.8 41.9002 17.8 41.8002C18 42.2002 18 42.6002 18 43.0002L18.2 42.7002C18.2 43.0002 18.4 43.0002 18.7 43.0002C18.4 43.0002 18.2 43.1002 18 43.3002C18.5 43.3002 18 43.8002 18.3 43.8002C18.4 44.5002 19.2 44.1002 19.6 44.6002C19.4 44.8002 19.6 45.1002 19.8 45.1002C20 45.9002 20 44.6002 20.3 45.1002C19.9 45.7002 20.5 46.4002 20.4 46.8002C20.3 46.7002 20.3 46.5002 20.3 46.3002C20 46.3002 19.8 46.2002 19.6 46.0002L19.4 46.3002C20 48.5002 19 51.0002 19.4 53.1002C19.6 53.4002 19.4 54.1002 20.1 54.1002C20.1 55.0002 20.3 55.8002 20.6 56.6002C21.3 56.3002 21.5 57.4002 22 57.6002C22.5 58.9002 22.5 60.4002 23.4 61.6002C23.2 61.6002 22.9 61.6002 22.9 61.3002C22.7 62.1002 23.6 61.8002 23.8 62.3002C23.6 63.3002 24.3 64.1002 24.7 64.8002C24.9 64.5002 25 64.1002 24.9 63.8002H24.4C24.2 62.8002 23.7 61.5002 23.5 60.5002C22.8 60.0002 22.4 58.9002 23 58.2002C23.7 59.2002 23.7 60.5002 24.4 61.5002C24.6 61.5002 24.9 61.5002 24.9 61.8002C24.8 63.5002 26.6 64.6002 26.7 66.4002H26.5C26.3 67.2002 27.2 67.4002 27.2 67.9002C27.9 68.0002 30 70.9002 30 69.9002C30.1 70.7002 31.1 69.5002 31.6 70.2002C31.8 71.7002 33.4 72.0002 34.4 72.7002H34.2C34.9 72.9002 35 73.8002 35.1 74.5002C35.8 74.8002 36.5 75.5002 36.5 76.3002H37.2C37.2 76.8002 37.4 76.8002 37.7 77.1002C38.1 76.5002 37.8 74.9002 38.8 76.3002V76.0002C40.3 79.2002 38.5 80.6002 38.1 83.6002C38.3 83.6002 38.3 83.9002 38.6 83.9002C37.3 86.8002 41.1 89.5002 41.6 92.5002L43.7 94.0002C44.6 94.5002 44.2 95.8002 44.8 96.3002C44.7 97.6002 44.7 98.8002 44.8 100.1C44.3 100.9 44.8 101.9 44.3 102.6C44.8 102.8 44.9 103.5 44.5 103.9L44.7 104.2C44.5 105 44.2 106 44 106.7C44.7 107.5 43.8 108.5 44 109.2H44.7C44.5 109.7 44.4 110.2 44.5 110.7C45.1 110.8 44.4 111.7 44.4 112.1C44.3 111.9 44.2 111.9 44 111.7C43.5 112 43.5 112.2 43.5 112.7C43.5 112.2 43.7 112.7 44 112.4C44.5 112.7 44.2 113.2 44.5 113.4C44.4 113.4 44.2 113.4 44.1 113.3C44.4 114.3 44.1 115.4 45 116.2C45.2 115.9 44.8 115.7 45.2 115.7C45.2 116.1 45.3 116.6 44.7 116.5C44.5 117.3 45.2 117.3 45.6 117.8H46.1V117C46.6 117.3 46.8 116.7 47 116.5L47.2 116.8C47.4 116.3 46.7 116 46.7 115.5C46.9 115.5 46.9 115.2 46.9 115C47.1 115.8 47.1 114.5 47.4 115C47.2 114.2 47.9 114 48.3 113.5C47.8 113 47.2 112.7 47.4 112C48.3 112 48.3 111.2 48.5 110.5H49V109.7C48.8 109.7 48.8 110 48.8 110.2C48.8 109.9 48.6 109.9 48.3 109.9C48.1 108.6 49 109.1 49.7 109.1V107.8C50.2 108.3 50.8 108.1 51.3 108.1C52 108.1 51.8 107.1 52.4 107.1C52.1 106.4 51.6 105.8 51 105.3C52.7 105.5 53.4 106.7 54.4 104.1C54.3 104.2 54.2 104.2 54.2 104.2C54.5 103.9 54.6 103.6 54.7 103.2H55C55 103.2 55 103.3 54.9 103.3C55.3 103 55.5 102.6 55.7 102.2C55.2 100.7 56.8 99.7002 58 99.4002L57.8 99.1002C60.8 99.6002 61 95.3002 61 93.0002C62.7 91.9002 63.9 89.8002 62.8 87.9002C61.7 87.7002 61 86.6002 59.8 86.1002C59 86.3002 58.1 85.3002 57.3 86.1002C57.3 85.1002 55.7 83.8002 54.8 84.6002C54.8 84.1002 54.6 84.1002 54.3 83.8002H53.6C53.4 83.3002 53.8 83.0002 54.1 82.8002C54.1 82.3002 53.4 82.5002 53.4 82.0002C53.1 80.1002 51.4 78.8002 49.5 79.0002C49.5 78.5002 49.3 78.5002 49 78.2002L48.8 78.5002C48.8 77.7002 48.4 77.0002 47.7 76.7002C47.7 77.2002 47.5 76.7002 47.2 77.0002C47 76.5002 47.4 76.5002 47.4 76.2002C47.2 75.7002 45.4 75.1002 46.7 74.9002H45.6L45.8 75.2002C44.9 75.5002 44.2 74.9002 43.3 74.9002L43.5 74.6002C43.3 74.1002 42.8 74.1002 42.6 73.8002C41.5 74.1002 41.9 74.8002 41.9 75.8002C41 75.3002 41.4 74.0002 41.7 73.3002C41.3 73.3002 40.9 73.2002 41 73.8002C40.5 73.8002 40.4 73.8002 40.1 74.3002C40.1 74.0002 40.1 74.0002 39.9 74.0002C39.7 74.2002 39.6 74.5002 39.7 74.8002L39.9 75.1002C39.5 75.3002 39.2 75.5002 39.2 75.9002C39.1 75.3002 38.2 75.5002 37.9 74.8002C37.7 75.3002 37.2 75.3002 36.8 75.3002C35.3 73.9002 36.4 71.8002 35.9 70.3002C35.2 70.4002 34.6 70.2002 34.1 69.8002C34.1 70.3002 33.9 69.8002 33.6 70.1002C34 69.6002 33.9 69.0002 33.8 68.3002C33.9 68.3002 33.9 68.4002 34 68.4002C34 67.5002 34.1 66.7002 34.3 65.8002C33.8 65.8002 33.2 66.3002 32.7 66.1002C32.7 66.5002 32.7 66.8002 32.9 67.1002C29.7 71.8002 28.2 60.8002 31.3 59.5002H32.2C32.2 59.8002 32.4 60.0002 32.9 60.3002C33.1 60.0002 32.7 59.8002 33.1 59.8002V60.3002C33.3 60.6002 33.3 60.3002 33.3 60.0002C32.8 60.0002 33.3 59.2002 32.8 59.5002V59.0002C33 59.2002 33.2 59.3002 33.5 59.3002L33.7 59.0002L33.9 59.3002C34.6 58.5002 34.6 59.8002 35.3 59.8002V59.3002C36.4 59.8002 36 61.3002 36.2 62.1002L36.4 61.8002C36.2 62.3002 36.6 62.6002 36.9 62.8002V63.3002C38 61.8002 36.4 60.0002 36.7 58.3002C37.1 58.0002 37.4 57.6002 37.4 57.0002L39.2 55.0002H39H39.5C39.5 54.7002 39.3 54.2002 39.7 54.0002C39.5 54.0002 39.2 54.0002 39.2 53.7002C39.8 53.5002 39.3 53.1002 39.4 52.8002C39.4 52.8002 39.4 52.9002 39.4 53.0002C39.6 52.5002 39.2 52.0002 39.6 51.5002V53.8002C39.6 53.0002 40.3 52.5002 40.1 51.8002C40.3 52.3002 40.3 51.5002 40.6 51.8002C40.8 51.5002 40.4 51.3002 40.8 51.3002C40.6 51.0002 41 50.8002 40.6 50.8002C40.8 49.8002 41.7 50.3002 42.2 49.5002C42.2 50.0002 42.4 49.5002 42.7 49.8002C42.7 49.5002 42.7 49.5002 42.9 49.5002H42.4C42.2 48.7002 42.6 48.2002 42.9 47.7002V48.0002C43.6 48.0002 43.6 47.2002 43.8 46.7002V47.0002C44.5 46.7002 45.2 46.3002 45.9 45.9002C45.9 46.0002 45.9 46.0002 45.9 46.1002C45.9 46.1002 45.8 46.2002 45.8 46.3002C45.8 46.3002 45.9 46.2002 45.9 46.1002C46 46.0002 46.2 46.0002 46.3 46.0002C45.7 46.6002 44.7 46.9002 44.9 47.8002C45.6 48.1002 45.8 47.3002 46 46.8002C46.2 46.8002 46.2 46.8002 46.2 47.1002C46.9 47.1002 46.9 46.1002 47.6 46.1002V45.7002C47.8 46.0002 48.3 45.7002 48.5 45.5002C48.3 45.3002 48.1 45.1002 48.3 44.7002C48.1 44.6002 47.4 45.4002 47.6 45.6002L47.4 45.8002C47.2 45.3002 46.7 45.5002 46.3 45.8002C46 45.3002 45.9 44.6002 45.8 44.0002V44.3002C45.7 44.2002 45.6 44.1002 45.6 44.0002C46 43.8002 46.3 43.3002 46.1 42.8002C44.8 43.1002 43.6 43.9002 42.9 45.1002C42.9 44.3002 43.6 44.1002 43.8 43.3002C44.7 43.1002 45.4 42.5002 45.9 41.8002C47.3 41.8002 48.9 42.1002 50 40.5002H50.5C50.7 40.2002 51.2 40.0002 51.4 39.7002C51.3 38.9002 51.4 37.9002 50.5 38.7002C50.5 38.4002 50.5 38.4002 50.7 38.4002C50.7 37.2002 49.6 38.8002 49.1 38.7002V38.2002C49.8 38.2002 50 37.7002 50.7 37.7002C50.2 37.4002 49.8 36.9002 49.1 36.9002C48.1 36.2002 48.5 34.6002 48 33.6002C47.5 33.3002 47.3 33.1002 47.5 32.3002C46.2 33.4002 46.9 35.5002 44.7 34.3002C44.9 33.1002 44.4 31.9002 43.3 31.3002C42.6 31.3002 41.7 31.8002 41 31.3002C41.2 31.6002 40.8 32.1002 41.2 32.1002L40.7 32.6002C40.8 33.4002 40.6 34.2002 40.2 34.9002C41.6 36.2002 40.4 37.9002 39.3 38.7002C39.5 39.7002 39.4 40.7002 39.1 41.7002C39.1 41.4002 39.1 41.4002 38.9 41.4002C39.1 41.7002 38.4 41.7002 38.7 41.9002C37.8 41.0002 37.5 39.6002 38 38.4002C37.5 38.4002 37.1 38.4002 36.6 38.7002V38.2002C35.4 38.0002 34.7 37.0002 33.6 37.4002C33.7 36.7002 33.3 36.0002 32.7 35.6002C32.7 34.3002 33.6 33.3002 34.1 32.3002H34.6C34.8 32.0002 34.6 32.0002 34.4 32.0002C34.9 32.0002 35 32.0002 35.3 31.5002C35.1 31.0002 34.6 31.2002 34.4 31.2002C34.9 30.4002 35.1 30.9002 35.5 31.2002V30.4002C35.7 30.4002 36 30.9002 36.2 30.7002C36.1 30.3002 37.1 30.0002 37.1 29.4002C36.6 29.4002 36 29.4002 35.7 28.9002C36.2 28.6002 36.6 29.4002 37.1 29.2002C37.1 28.9002 37.1 28.7002 37.6 28.7002V28.2002C38.1 27.9002 38.3 28.5002 38.7 28.2002C38.7 28.1002 38.7 27.9002 38.6 27.8002C39.1 28.0002 39.7 27.3002 40.1 26.7002C39.7 26.7002 39.8 26.2002 39.6 26.2002C39.9 26.0002 40 25.5002 40.3 25.2002H39.8V24.7002H38.2C38.2 25.1002 38.1 25.6002 38.7 25.5002C38 25.8002 38.2 26.5002 37.6 26.8002V27.3002C37.4 27.3002 37.1 27.3002 37.1 27.6002C36.6 27.3002 36.9 26.8002 36.9 26.6002C37.4 26.6002 36.9 26.3002 37.1 26.1002C36.4 25.3002 36.4 26.4002 36 26.6002C35.8 26.4002 35.7 26.1002 35.8 25.8002L36 25.5002C35.5 25.5002 35.3 25.2002 34.9 25.2002C35.1 25.2002 35.4 25.2002 35.4 24.9002C35.2 24.9002 35.2 24.9002 35.2 24.6002H35.7C35.5 24.3002 35.2 24.1002 35.2 23.8002L35.4 23.5002C35.2 23.0002 34.7 23.2002 34.5 23.2002L34.7 22.9002H34.2C34.4 22.4002 34.9 22.4002 35.1 22.1002C35.1 22.0002 35.1 21.9002 35.1 21.9002C35.8 21.7002 36.3 21.3002 36.6 20.6002C35.9 20.1002 35 20.1002 34.3 20.6002C34.5 20.6002 34.5 20.6002 34.5 20.9002H34C33.8 21.7002 34.2 22.2002 34.2 22.9002H34V24.0002L33.8 23.8002C32.9 24.5002 33.4 25.8002 34.7 25.6002C34.5 26.0002 34.3 26.3002 34 26.6002C34.2 26.6002 34.5 26.6002 34.5 26.1002V26.6002C34.1 26.9002 33.8 27.4002 33.6 27.8002C33.4 27.6002 33.4 27.8002 33.4 28.1002L33 27.8002C33.2 27.6002 33.3 27.3002 33.2 27.0002C32.7 27.0002 32.5 26.5002 32.1 26.7002V27.2002C32.4 27.2002 32.6 27.3002 32.8 27.5002C32.3 27.8002 32.3 26.7002 31.7 27.8002C30.6 28.0002 29.5 27.6002 28.7 26.8002C28.5 27.3002 28 27.3002 27.6 27.6002C27.9 27.8002 28.3 27.7002 28.5 27.5002C27.4 28.3002 28.6 28.6002 28 29.3002C27.8 29.2002 27.7 29.0002 27.5 28.9002C28 28.9002 27.5 28.6002 27.7 28.4002C27.2 28.4002 27.1 28.4002 26.8 27.9002C26.2 28.4002 25.3 28.6002 24.5 28.4002C24.3 27.9002 25 27.9002 25.2 27.6002C25 27.3002 24.3 26.8002 24.3 27.4002C23.8 27.4002 23.4 27.2002 23 26.9002C23.3 26.4002 23.7 25.9002 24.1 25.4002C24.9 25.5002 25.9 25.0002 26.6 25.6002C26.4 25.6002 26.1 25.6002 26.1 25.9002C25.3 25.6002 24.3 25.7002 23.6 26.2002C24.1 27.2002 25.4 26.5002 25.9 27.7002C26.8 27.2002 28.2 27.4002 28.7 26.2002V26.7002C29.4 26.7002 30.1 27.5002 30.8 26.7002V26.0002C30.6 26.0002 30.3 26.0002 30.3 26.3002C30.3 26.0002 30.3 26.0002 30.1 26.0002C30.6 26.0002 30.8 25.5002 31.4 25.6002C31.3 25.3002 30.3 24.1002 30.4 24.9002C30.2 24.6002 29.9 24.4002 29.7 24.1002H29.9C29.9 23.1002 29.4 21.6002 28.3 21.8002C28.5 22.3002 28.3 23.1002 28.8 23.6002C28.6 23.6002 28.6 23.6002 28.6 23.9002C28 24.0002 28 23.5002 28 23.0002C27.8 22.7002 27.8 22.2002 27.1 22.5002L27.6 23.0002C27.4 23.0002 26.9 23.3002 26.7 23.3002C26.5 23.0002 27.2 22.6002 26.5 22.5002C27.4 21.7002 28.1 20.0002 29.5 20.1002C29.9 19.9002 29.8 19.5002 29.7 19.1002C29.9 18.9002 30.1 18.7002 30.3 18.5002C30.3 18.5002 30.4 18.6002 30.5 18.6002C30.3 18.6002 30.3 18.6002 30.3 18.9002H30.8L30.6 19.2002C30.7 19.2002 30.8 19.2002 31 19.2002L30.9 19.3002C31.2 19.4002 31.3 19.1002 31.5 19.1002C31.4 19.1002 31.4 19.3002 31.4 19.5002H31L31.2 19.8002C31.7 19.5002 31.9 19.3002 32.6 19.5002H32.1V20.3002C32.6 20.0002 33 20.0002 33.5 19.8002C33.3 19.8002 33 20.1002 33 19.5002C33.5 19.5002 33.2 19.0002 33.5 18.7002C33.3 18.4002 33.3 18.2002 32.8 18.3002C32.6 18.2002 32.3 18.2002 32.1 18.2002C32.1 18.7002 32.3 18.7002 32.6 19.0002C32.1 19.3002 31.9 18.5002 31.5 18.5002V19.0002C31.7 19.0002 32 19.0002 32 19.3002C31.8 19.3002 31.6 19.1002 31.4 19.2002C31.3 19.2002 31.2 19.1002 31.1 19.2002C31.2 19.1002 31.2 19.0002 31.2 18.8002C30.9 19.0002 30.8 18.6002 30.7 18.4002C31.3 17.8002 31.9 17.3002 32.5 16.7002C32.6 16.7002 32.7 16.8002 32.8 16.8002C32.8 16.7002 32.8 16.6002 32.8 16.4002C33 16.3002 33.1 16.1002 33.3 16.0002C33.4 16.3002 33.7 16.3002 33.9 16.3002C33.7 16.3002 33.7 16.6002 33.4 16.6002C33.6 16.6002 33.9 16.3002 33.8 16.8002C34.3 16.5002 34.9 16.5002 34.7 15.8002C34.4 16.0002 34.1 15.7002 33.7 15.6002C34 15.3002 34.4 15.1002 34.7 14.8002C34.9 14.8002 34.9 14.8002 34.9 14.6002H35C35.2 14.6002 35.2 14.6002 35.2 14.9002C35.4 14.9002 35.4 14.9002 35.4 14.6002C35.6 14.6002 36.1 14.3002 36.3 14.9002H37C36.5 15.4002 35.6 14.6002 35.2 15.4002C35.3 15.7002 35.6 15.6002 35.9 15.7002C36.1 15.7002 36.3 15.8002 36.4 15.9002C36.2 15.9002 36 15.9002 35.9 15.7002V16.2002C36.2 16.2002 37 16.9002 37 16.3002C37.2 16.2002 37.3 16.1002 37.5 16.2002C37.8 15.8002 38.4 15.2002 38.9 15.2002C39.1 15.2002 39.4 15.2002 39.4 15.0002C39.3 15.0002 39.3 15.0002 39.2 15.0002C39.3 14.9002 39.4 14.8002 39.5 14.7002C39.3 14.5002 38.9 14.4002 38.6 14.3002C38.6 14.1002 38.5 13.8002 38.6 13.7002H38.3C38.4 13.7002 38.4 13.6002 38.4 13.5002H37.7V13.2002C37.5 13.3002 37.3 13.3002 37.1 13.2002C37.3 13.1002 37.5 12.9002 37.7 12.8002C37.9 13.0002 38.1 13.2002 38.3 13.2002C38.6 12.7002 39.1 12.4002 39.7 12.2002C39.6 12.2002 39.5 12.3002 39.3 12.3002C39.8 12.1002 40.3 12.1002 40.8 12.2002C40.3 12.7002 39.4 12.2002 39 12.7002C39 13.0002 38.8 13.0002 38.8 13.2002C39.5 13.3002 40.1 13.2002 40.7 12.9002C40.6 13.0002 40.6 13.1002 40.6 13.2002C40.7 13.2002 40.9 13.2002 41 13.2002C40.8 13.3002 40.7 13.3002 40.6 13.4002C40.8 13.9002 41.3 13.9002 41.7 14.1002C40.7 14.3002 39.9 12.7002 38.8 13.6002C38.5 14.6002 39.8 14.3002 40.2 14.9002C40.1 14.9002 40 14.9002 39.9 14.9002C40.4 15.5002 41 14.5002 41.4 14.9002C41.2 15.3002 40.9 15.2002 40.7 15.2002C40.7 15.2002 40.7 15.3002 40.7 15.4002C40 15.0002 39 15.1002 38.4 15.7002V16.2002C38.6 16.2002 38.6 16.2002 38.9 15.9002C39.1 15.7002 39.2 16.5002 39.4 16.1002C39.3 16.3002 39.2 16.5002 39.1 16.7002C39.4 16.5002 39.5 16.9002 39.7 17.0002C39.3 17.1002 38.7 17.1002 38.8 16.5002C38.3 16.5002 37.9 16.2002 37.7 16.8002C37.7 17.3002 38.4 17.1002 38.4 17.6002C37.9 17.6002 37.5 17.6002 37 17.9002V18.0002H36.9C36.9 18.0002 36.7 18.2002 36.8 18.2002C36.7 18.5002 36.9 18.5002 37.1 18.5002V18.4002C37.5 18.3002 37.7 18.9002 38.2 18.7002C38 18.7002 38 18.4002 38 18.2002L38.5 18.7002C38.9 18.7002 39.3 18.7002 39.6 18.7002C39.5 18.7002 39.4 18.6002 39.4 18.5002C39.5 18.5002 39.8 18.1002 39.8 18.5002C40 18.5002 40 18.5002 40 18.2002C40.2 18.2002 40.2 18.2002 40.2 18.5002C40.4 18.5002 40.7 18.5002 40.7 18.2002C40.9 18.5002 41.4 18.5002 41.8 18.5002C41.6 17.7002 42.9 18.5002 42.7 17.5002C42.1 17.7002 41.4 17.1002 40.8 17.4002C40.9 17.3002 40.9 17.1002 40.9 17.0002C41.5 17.3002 42.1 17.3002 42.7 17.0002C42.5 16.7002 42.9 16.5002 42.5 16.5002C43 16.2002 43.4 16.8002 43.9 16.2002H43.4C43.4 15.7002 44.1 16.2002 44.1 15.7002H44.3V15.2002H42.9C43.1 15.0002 43.3 14.9002 43.6 14.9002H43.1C43.6 14.6002 44 15.2002 44.5 14.6002C44.3 14.6002 43.6 14.6002 43.4 14.6002C43.6 14.5002 43.8 14.4002 44 14.3002L44.2 14.6002C44.4 14.1002 44.9 14.3002 45.1 14.3002C45.1 14.2002 45.1 14.1002 45.1 13.9002C45.6 14.0002 46.1 13.8002 46.5 13.5002L46.3 13.3002C46.4 13.3002 46.5 13.3002 46.5 13.3002V12.8002C47.6 13.1002 48.6 11.8002 49.7 11.5002C49.3 11.4002 48.9 11.4002 48.5 11.5002C48 11.2002 47.6 11.8002 47.4 11.2002C48.8 11.2002 50.2 11.2002 51.3 10.2002C51.1 9.7002 50.6 9.9002 50.2 9.9002V8.8002C49.7 9.2002 49 9.0002 48.3 9.1002C48.4 8.9002 48.6 8.8002 48.8 8.8002C48.3 8.8002 47.9 8.5002 47.7 9.1002C46.9 8.6002 45.9 8.7002 45.2 9.1002C44.8 8.9002 44.4 8.7002 44 9.1002C44 8.8002 43.8 8.8002 43.5 8.8002C43.5 8.9002 43.5 8.9002 43.5 9.0002C43.8 9.0002 44 9.4002 44.2 9.6002C44.2 9.9002 44 9.9002 43.7 9.9002L43.9 9.6002C43.7 9.3002 43.2 9.3002 43 9.1002C42.9 9.2002 42.8 9.2002 42.7 9.2002C62.3 -0.999804 87.4 3.60019 102.2 19.4002C101.7 19.6002 101.1 19.8002 100.7 20.2002L100.9 20.5002C100.9 21.0002 100.2 21.0002 100.2 21.5002H99.7C99.5 21.8002 99.7 21.8002 99.9 21.8002C99.9 22.3002 99.2 22.1002 99.2 22.6002C99.2 22.9002 99.1 23.1002 99 23.4002C99 23.7002 98.8 23.9002 99.2 24.0002C99.6 24.3002 99.7 24.5002 100.2 24.4002L100 24.7002C100.2 25.5002 100.9 25.2002 101.6 25.2002C100.2 24.2002 100.9 22.2002 102.1 21.4002L101.9 21.1002C102.1 21.4002 102.4 20.8002 102.6 21.1002C102.7 20.9002 102.9 20.7002 103.2 20.5002C104.4 21.8002 105.6 23.2002 106.7 24.6002C106.5 24.9002 106.3 25.2002 106.1 25.4002C106.3 25.9002 106.4 26.4002 106.3 26.9002H106.8V27.7002C107 27.7002 107 27.7002 107.3 28.0002C107.5 28.5002 106.8 28.3002 107.1 28.5002C106.2 27.4002 104.9 26.6002 103.4 26.5002C103.4 26.8002 103.2 27.0002 103.9 27.3002C103.4 27.3002 103.4 27.8002 103 27.8002V27.0002C102.1 27.5002 101.2 27.0002 100.2 27.5002C100 27.2002 100.7 27.0002 100.4 26.7002C99.7 26.7002 99 27.2002 98.3 27.2002V27.7002C98.3 27.4002 98.1 27.4002 97.8 27.4002C97.8 27.7002 98.3 28.2002 97.6 28.2002C97.4 27.9002 96.9 27.9002 96.5 27.7002V27.2002H97C97 26.2002 96.1 26.4002 95.4 26.2002C95.4 26.5002 95.6 26.5002 95.9 26.5002C95.9 27.3002 96.4 28.3002 96.1 29.0002C96.1 28.5002 95.9 28.5002 95.6 28.2002C94.8 28.1002 93.6 28.7002 94.5 29.7002C94 30.0002 93.6 29.4002 93.1 29.4002V29.0002H92.6C92.4 29.7002 93.3 29.9002 93.3 30.5002C92.4 30.3002 91.7 29.6002 91.5 28.7002C91.9 28.7002 91.7 28.4002 91.7 28.2002C91.1 28.0002 90.7 27.3002 90.2 26.9002C91.3 27.5002 92.5 27.8002 93.5 28.5002C94 28.2002 94.4 28.2002 94.6 27.7002C94.1 26.2002 92.5 25.9002 91.4 24.9002L91.2 25.2002C90.7 25.2002 90.3 24.7002 89.8 24.2002C89.9 24.2002 90 24.2002 90 24.2002L89.9 24.0002C89.2 24.8002 88.8 23.7002 88.3 23.7002C88.5 23.7002 89 24.0002 89.2 23.4002C88.8 23.4002 88.6 22.8002 88.2 22.7002C88.3 22.5002 87.3 22.7002 87.2 22.7002V23.2002C87 23.2002 87 22.9002 87 22.7002C86.8 23.0002 86.8 23.2002 86.5 23.5002V22.5002H86C85.8 22.8002 85.3 23.0002 85.3 23.5002C85.1 23.1002 84.7 22.9002 84.3 23.0002C84.4 23.1002 84.4 23.3002 84.5 23.3002C83.8 23.7002 82.5 23.1002 82.7 24.5002C82.5 24.5002 82.2 24.2002 82 24.2002C82 24.5002 82 24.5002 82.2 24.5002C82.3 24.9002 81.7 25.3002 81.7 24.7002C80.7 24.9002 80.8 26.4002 79.9 27.0002C80.1 27.0002 80.1 27.0002 80.1 27.3002H79.4C79.2 27.6002 79.6 27.8002 79.6 28.1002H79.1C78.4 28.6002 78 29.1002 77 29.1002C77.2 29.1002 77.2 29.1002 77.2 29.4002H77C77 29.9002 76.3 29.9002 76.3 30.4002V31.9002H76.8C76.8 32.2002 76.8 32.4002 76.6 32.4002C76.6 32.7002 77.3 32.4002 77.1 32.9002H76.6C77.1 34.5002 79.2 33.3002 79.6 32.1002C79.7 33.5002 80.8 34.4002 81 35.6002L80.8 35.9002C81 36.4002 81.5 36.4002 81.9 36.4002V35.9002C82.1 35.9002 82.4 35.9002 82.4 35.6002L82.6 35.9002C82.9 35.3002 83 34.6002 83.1 33.9002C83.8 33.9002 83.8 33.1002 84 32.6002C84 31.8002 83.1 32.1002 83.1 31.6002V30.0002C84.9 29.1002 85 29.2002 85.4 27.2002C85.6 27.5002 86.1 27.5002 86.5 27.5002C87.6 28.5002 85.8 29.0002 85.6 29.8002H85.1C85 30.7002 85.2 31.5002 85.6 32.3002H86.3C86.5 33.7002 88.4 32.1002 89.3 32.5002V33.0002C89.4 33.0002 89.4 33.0002 89.5 33.0002L89 33.6002C89 33.3002 88.8 33.3002 88.5 33.3002L88.3 33.6002C87.6 32.8002 87.2 33.9002 86.5 33.6002V34.1002C87.2 34.1002 87 34.9002 87.4 35.4002C86.9 36.2002 86.3 35.1002 86 34.9002C86 35.2002 85.8 35.2002 85.5 35.2002C85.2 35.9002 85.3 36.6002 85.7 37.2002C85.1 37.6002 84.3 37.6002 83.6 37.2002C83 37.6002 82.3 37.8002 81.5 38.0002V37.5002C81 37.5002 80.4 37.2002 79.9 37.8002C80.1 37.5002 79.7 37.3002 80.1 37.3002H79.2C78.5 36.5002 79.2 35.8002 79.7 35.3002C79.2 35.6002 79.2 34.8002 78.8 35.0002C78.1 35.3002 78.1 35.5002 78.1 36.3002H78.6C78.4 37.1002 79.1 37.6002 78.6 38.3002C77.5 36.7002 76 38.4002 75.6 39.8002C74.9 39.5002 74.3 40.1002 74.5 40.8002C74.1 40.8002 73.7 40.7002 73.8 41.3002C73.3 41.3002 72.9 41.6002 72.4 40.8002C72.4 41.1002 72.2 41.6002 72.6 41.8002L72.4 42.1002C71.7 41.6002 71.3 41.8002 70.6 42.1002C70.8 43.4002 72.7 42.6002 72.4 43.9002C72.4 44.4002 73.3 43.9002 73.1 44.7002H72.6C72.6 45.0002 72.8 45.0002 73.1 45.0002C72.9 45.7002 72.8 46.3002 72.9 47.0002C71.2 46.8002 69.5 46.7002 67.9 46.7002V47.2002C68.8 48.2002 67.4 49.7002 67.7 51.2002H68.2C67.7 51.7002 68 52.2002 68 52.7002C68.9 52.7002 69.8 52.7002 70.3 53.7002L70.8 53.2002C71.9 52.9002 73.3 52.9002 73.8 51.4002C73.3 49.9002 74.7 48.9002 75.9 48.4002V46.9002C76.8 46.9002 77.3 47.4002 78.2 47.4002C78.7 47.0002 79.2 46.6002 79.8 46.4002C80.5 46.7002 80.5 47.4002 80.9 47.9002V48.4002C81.3 48.8002 81.8 49.2002 82.3 49.4002C82.5 50.2002 83.4 50.4002 83.9 51.2002V52.7002C84.1 51.9002 84.6 51.2002 84.4 50.4002H84.9C84.9 50.7002 84.9 50.9002 85.4 50.9002C85.2 49.9002 83.8 49.6002 83.6 48.6002H83.1C82.4 48.1002 82.2 46.8002 81.5 46.3002C81.5 46.0002 81.7 46.0002 82 46.0002C81.8 45.7002 81.5 45.7002 81.5 45.2002C81.9 44.9002 82.5 45.3002 82.5 45.8002C82.6 45.7002 82.8 45.7002 82.7 45.5002C83.2 45.8002 83.4 46.5002 83.6 47.0002C84.6 47.1002 85.2 48.3002 85.9 49.0002C85.7 50.0002 86.4 50.8002 86.4 51.5002H86.9C87.1 51.8002 86.4 51.8002 86.7 52.0002L87.3 52.2002C87.3 52.8002 87.3 53.6002 87.8 53.9002L88 53.6002L88.2 53.9002C88.2 53.6002 88.1 53.2002 88 52.9002C88.1 53.0002 88.3 53.0002 88.4 53.0002C88.2 52.7002 87.9 52.5002 87.6 52.3002L88.6 52.7002V52.4002C88.7 52.5002 88.7 52.6002 88.8 52.6002C88.7 52.2002 88.4 51.7002 88 51.8002C87.7 51.3002 88 50.7002 87.4 50.4002C87.8 50.4002 88.1 50.6002 88.3 50.9002C88.5 51.2002 88.5 50.4002 88.8 50.6002C88.3 50.5002 88 50.5002 88 50.0002C88.9 50.3002 89.8 50.4002 90.8 50.3002C90.6 49.5002 89.7 49.0002 89.9 48.0002H90.6C90.6 47.7002 90.4 47.7002 90.4 47.5002C90.9 46.7002 91.1 45.7002 91.8 45.2002C91.8 45.7002 92 45.2002 92.3 45.5002H91.8C92 46.0002 92.5 46.0002 92.9 46.0002C92.9 46.3002 92.9 46.5002 92.2 46.5002C92.5 46.7002 92.8 46.9002 93 47.3002C93.3 47.2002 93.6 47.3002 93.8 47.5002L93.6 47.2002L93.8 46.9002C93.3 46.6002 93.6 46.1002 93.6 45.9002C94.1 45.5002 94.8 45.4002 95.4 45.4002C95.3 45.5002 95.3 45.9002 95 45.9002C95 46.2002 95 46.2002 95.2 46.2002C95 46.7002 94.7 47.0002 94.3 47.0002V46.8002C93.7 46.7002 93.7 47.4002 94.3 47.3002V47.0002C95.2 47.7002 96 48.5002 96.6 49.5002L97.1 49.8002V50.6002C96.4 51.6002 95.3 50.6002 94.3 50.3002V49.8002L94 50.0002C93.8 50.0002 93.8 49.7002 93.8 49.5002C93.8 50.0002 93.6 49.5002 93.3 49.8002L93.1 49.5002C92.4 49.8002 91.7 50.5002 90.8 50.3002C90.9 50.3002 90.9 50.3002 91 50.3002C91 50.3002 91 50.4002 91 50.5002C90.5 50.7002 89.9 50.8002 89.4 50.8002V51.6002L89.6 51.3002V52.5002C89.8 52.6002 89.9 53.1002 90.1 53.3002C90.1 53.6002 90.1 53.8002 89.9 53.8002H90.4C90.2 53.8002 89.9 53.8002 89.9 54.1002C90.6 54.1002 91 53.8002 91.7 54.6002C91.7 54.3002 91.8 54.1002 91.9 53.8002C92.3 54.2002 92.8 54.6002 93.3 54.8002C93.3 54.5002 93.5 54.5002 93.5 54.3002H94.6C94.6 54.9002 94 55.4002 94.6 55.8002C93.9 56.8002 94.1 58.3002 93 59.1002C92.5 58.1002 91.6 58.6002 90.9 59.1002C90.3 58.7002 89.6 58.5002 88.8 58.3002V57.8002C87.9 58.1002 87.7 57.3002 87 57.0002C86.8 57.3002 86.3 57.3002 86.1 57.5002V58.5002C85.6 58.5002 86.1 59.3002 85.6 59.3002C84.9 58.0002 83.5 58.5002 83.1 57.0002C82.2 56.7002 81 57.0002 80.6 56.0002C80.6 56.5002 80.4 56.0002 80.1 56.3002L80 56.0002C80.2 55.2002 81.1 54.5002 80.5 53.7002C80.3 53.4002 81 53.4002 80.7 53.2002C80.2 53.2002 80 52.7002 79.8 52.4002C79.6 52.7002 79.3 52.9002 79.1 52.9002C78.4 52.4002 77.7 52.9002 77 52.9002C75.7 52.2002 73.9 53.2002 72.9 54.2002C72 54.5002 71.3 53.7002 70.4 53.9002C70.2 53.9002 70.2 53.6002 70.2 53.4002C69.5 54.6002 69.2 55.8002 67.7 56.4002C67.7 57.2002 67.2 57.9002 67.5 58.7002C67 59.6002 66.3 60.5002 65.2 60.7002C64.7 62.7002 63.4 64.2002 62.7 66.0002C62.7 68.0002 64.1 70.5002 62.2 72.1002C62.4 72.6002 62.7 73.4002 63.1 73.6002H62.6C63.1 75.4002 64.9 76.6002 65.4 78.4002C65.9 78.7002 66.3 79.1002 66.5 79.7002C66.7 80.5002 67.6 80.2002 68.1 80.7002C69.5 80.4002 70.9 79.9002 72.2 80.4002C73.4 79.1002 75.3 78.9002 76.8 79.9002V80.4002H77.3V81.0002C77.3 80.7002 77.5 80.7002 77.5 80.5002C77.8 80.5002 78 80.6002 78.2 80.8002C78.4 80.8002 78.4 80.5002 78.4 80.3002C79.8 80.8002 79.3 82.1002 78.9 83.1002H79.4C78.3 84.6002 79.4 86.1002 80.3 87.4002C80.4 89.4002 81.9 91.9002 79.8 93.5002C79.3 94.3002 79.8 95.0002 79.3 95.8002C80.4 97.2002 80.8 99.1002 80.4 100.9C81.3 101.9 81.3 103.4 82 104.4C81.5 104.7 81.5 104.9 81.5 105.4C82 105.4 82.1 105.4 82.4 105.9C82.4 105.4 83.1 105.9 83.1 105.4C84 105.4 84.7 104.9 85.6 105.1C87.1 104 88.5 102.6 89.5 101.1C89.3 100.6 89.7 100.3 89.7 99.8002H89.5C90.2 99.3002 91.3 98.5002 91.3 97.3002V97.6002C91.5 97.1002 91.1 96.3002 91.1 95.8002C95.4 92.8002 94.3 91.8002 94.5 87.2002L94.3 86.9002C95.6 82.4002 100.3 79.4002 101.2 74.5002C101 74.3002 100.9 74.0002 101 73.7002C99.9 74.5002 98.5 75.5002 97.1 74.2002C97.1 73.9002 97.3 73.9002 97.6 73.9002V73.1002C98 73.0002 98.9 73.4002 98.7 72.6002C99.2 72.9002 99.6 72.3002 100.1 72.3002C100.1 71.6002 102.3 71.7002 101.9 70.3002C102.8 70.3002 103.3 69.0002 104.2 68.5002C104 67.5002 104.9 66.7002 105.3 66.0002C104.7 65.1002 103.6 64.6002 103.6 63.5002C103.3 64.0002 103 64.4002 102.5 64.7002H101.6V63.2002C101.1 63.5002 101.6 64.0002 101.1 64.2002C101.2 63.3002 100.8 62.4002 100.2 61.7002C100.2 61.2002 99.7 60.4002 100 59.9002C100 60.2002 100.2 60.2002 100.5 60.2002V59.7002C100.5 60.2002 101 59.7002 101.2 60.0002C101.1 61.4002 102 62.6002 103.4 62.8002C103 63.2002 103.9 62.6002 103.6 62.6002L103.7 62.5002C103.9 64.0002 105.8 64.3002 106.9 63.8002L107.1 64.1002C107.3 63.6002 107.8 63.8002 108 63.8002C108 64.6002 108.5 65.8002 109.4 65.6002C109.2 65.9002 109.2 66.1002 108.7 66.1002C109 67.1002 110.2 67.8002 110.1 66.1002C110.5 68.6002 110.2 71.1002 111.2 73.4002C111.1 74.1002 111.1 75.3002 111.9 75.7002C111.7 75.4002 112.4 75.2002 112.1 74.9002H112.6V74.4002C113.4 74.0002 113 71.8002 113.1 70.9002C114.2 69.4002 115.9 68.1002 116.3 66.4002C116.5 66.9002 117 66.7002 117.2 66.7002V66.2002C117.2 66.5002 117.2 66.5002 117.4 66.5002V65.5002C117.6 65.7002 117.7 66.0002 117.6 66.3002C117.6 66.0002 117.6 66.0002 117.8 66.0002C117.8 66.3002 118.3 66.5002 118 67.0002C118.7 68.0002 119.3 69.4002 118.7 70.5002L119.1 70.4002ZM20.2 46.8002C20.1 46.9002 20 47.0002 19.9 47.0002C20 46.6002 20.1 46.8002 20.2 46.8002ZM38.1 27.8002L38.3 27.5002C38.4 27.6002 38.4 27.7002 38.5 27.8002C38.4 27.8002 38.2 27.8002 38.1 27.8002ZM34.6 22.2002C34.7 22.2002 34.8 22.2002 34.9 22.2002C34.8 22.3002 34.7 22.3002 34.6 22.2002ZM37.8 12.9002C37.8 13.0002 37.9 13.1002 38 13.1002H37.8V12.9002ZM40.8 15.7002C40.7 15.8002 40.5 16.0002 40.4 16.1002C40.5 15.8002 40.5 15.7002 40.8 15.7002ZM45.9 12.9002C46.1 12.7002 46.3 12.6002 46.6 12.7002C46.4 12.8002 46.1 12.9002 45.9 12.9002ZM47.2 11.4002C47.4 11.2002 47.7 11.1002 48 11.1002C47.8 11.2002 47.5 11.3002 47.2 11.4002ZM105.1 49.4002C104.9 49.4002 104.7 49.4002 104.7 49.1002C104.5 48.8002 104.8 48.4002 104.5 48.1002C104.5 48.0002 104.5 47.9002 104.5 47.8002C104.7 47.8002 104.7 47.8002 104.7 48.1002C104.8 48.1002 104.9 48.0002 104.9 48.0002C104.9 48.1002 104.9 48.1002 104.9 48.2002C105.5 48.4002 104.9 48.9002 105.1 49.4002ZM104.2 49.1002C104.1 48.8002 104.2 48.6002 104.3 48.4002C104.4 48.6002 104.5 48.9002 104.2 49.1002ZM104.8 47.8002C104.8 47.7002 104.8 47.6002 104.8 47.5002C104.8 47.8002 105 47.8002 105.2 47.9002C105.4 48.5002 104.9 47.8002 104.8 47.8002ZM105 47.3002C105.2 47.3002 105.4 47.3002 105.4 47.6002C105.4 47.6002 105.3 47.7002 105.3 47.8002C105 47.8002 105 47.6002 105 47.3002ZM100.5 52.6002C100.5 52.1002 101.4 52.4002 100.9 51.8002C100 50.5002 99.1 48.9002 99.4 47.3002L99.6 47.6002C100 47.1002 100.6 46.9002 101.1 46.4002C101.3 46.9002 101.7 46.4002 102 46.7002C102 47.2002 102.1 47.8002 102.3 48.3002C102 48.1002 101.6 48.0002 101.2 48.0002V48.8002C101.2 48.5002 101.2 48.5002 101 48.5002L100.8 48.7002C101.2 49.0002 101.3 49.5002 101.5 50.0002H101.9C102.1 50.8002 101.6 52.1002 102.4 52.4002C102.4 52.7002 102 52.9002 102.2 53.2002L102.4 52.9002C103 53.4002 102.5 54.1002 102.7 54.8002C101.6 55.7002 101.3 54.6002 100.5 54.2002C100.3 53.6002 100.8 53.1002 100.5 52.6002ZM95.1 68.9002C95.6 67.6002 94.6 66.1002 94.2 64.9002C94.4 64.9002 94.4 64.9002 94.4 64.6002C93.4 64.1002 93.9 61.7002 93.1 60.6002C93.4 61.0002 93.6 61.4002 93.7 61.8002C93.7 61.3002 93.5 60.5002 93.9 60.0002C93.9 60.5002 94.1 61.0002 93.7 61.5002C94.8 62.3002 95.1 64.3002 96 65.5002V67.0002C97.5 68.4002 97.4 70.8002 97.6 72.8002C96.7 71.8002 95.6 71.0002 95.8 69.5002L95.1 68.9002ZM89.9 33.3002C89.7 33.3002 89.5 33.3002 89.4 33.1002C89.6 33.1002 89.8 33.2002 89.9 33.3002ZM88 23.0002V23.3002C87.9 23.2002 87.9 23.1002 88 23.0002Z" fill="#E9ECF1"/>
<path d="M69.5 28.6001C70.2 27.8001 73.4 27.9001 71.1 26.3001C71 26.2001 71 26.1001 71.1 26.1001C71 26.1001 70.9 26.2001 70.9 26.3001C70.4 26.3001 71.1 25.6001 70.2 25.8001L70.4 26.0001C70.2 26.2001 69.7 26.0001 69.7 26.5001L69.2 26.0001C69.2 26.2001 69.4 26.5001 69.4 26.7001C69.4 26.5001 68.9 26.2001 68.9 26.0001C68.7 26.0001 68.7 26.2001 68.7 26.5001C68.5 26.5001 68.5 26.5001 68.5 26.3001L67.6 27.0001L67.1 26.5001C67.3 26.5001 67.3 26.5001 67.3 26.3001C67.1 25.9001 66.4 25.4001 66.3 26.1001C66.5 26.1001 66.8 26.1001 66.8 26.3001C66.1 25.8001 66.1 26.3001 65.6 26.8001C66 27.0001 67.3 26.3001 66.8 27.3001H65.9C66.1 27.8001 66.9 27.5001 67.1 27.8001C67.1 28.0001 67.1 28.2001 66.9 28.2001C67.8 28.1001 68.5 28.9001 69.5 28.6001Z" fill="#E9ECF1"/>
<path d="M50.6 117.8C49.9 117.4 49.4 116.9 49 116.3C48.5 116 48.3 116.5 48.1 116.5C48.1 116.7 48.1 117 48.3 117C48.3 116.8 48.5 116.8 48.7 116.8L48.3 117.3C48.1 117.8 49 117.3 48.8 117.8C48.4 117.3 47.9 117.9 47.5 117.8C48.4 118.2 49.5 117.9 50.4 118.3C50.4 118.1 50.6 118.1 50.9 118.1C50.8 117.8 50.8 117.8 50.6 117.8Z" fill="#E9ECF1"/>
<path d="M47.2 117.1C47.1 117 46.9 116.9 46.7 116.9C46.9 117.1 47.2 117.4 47.4 117.2C47.4 117.2 47.1 117.2 47.2 117.1Z" fill="#E9ECF1"/>
<path d="M54.3 104.1C54.6 103.9 54.8 103.7 54.9 103.4C54.7 103.6 54.4 103.8 54.3 104.1Z" fill="#E9ECF1"/>
<path d="M19.3 45.7996C19.4 45.8996 19.6 45.8996 19.8 45.8996C19.6 44.8996 19.1 44.0996 18 44.0996C18.2 44.8996 18.9 44.8996 18.9 45.5996C18.9 45.2996 19.1 45.2996 19.4 45.2996C19.3 45.6996 19.3 45.6996 19.3 45.7996Z" fill="#E9ECF1"/>
<path d="M95 86.2003C95.1 85.9003 94.9 85.8003 95 86.2003Z" fill="#E9ECF1"/>
<path d="M49.3 118.3C49.2 117.9 48.8 118.4 48.5 118.1C48.7 118.3 49.2 118.1 49.4 118.6C49.4 118.4 49.4 118.4 49.3 118.3Z" fill="#E9ECF1"/>
<path d="M55.6 9.79953C55.9 9.69953 56.1 9.99953 56.4 9.89953C56.3 9.79953 55.8 9.69953 55.7 9.49953C55.7 9.09953 55.1 9.89953 55.6 9.79953Z" fill="#E9ECF1"/>
<path d="M61.9 8.30042C61.9 8.50042 62.3 8.40042 62.4 8.40042C62.4 8.30042 61.9 8.10042 61.9 8.30042Z" fill="#E9ECF1"/>
<path d="M62.7 8.30048C62.4 8.20048 62.1 7.90048 61.8 8.10048C62.1 8.10048 62.4 8.30048 62.7 8.30048Z" fill="#E9ECF1"/>
<path d="M41.4 20.5003C41.3 20.5003 41.2 20.5003 41 20.5003V21.0003C41.5 20.8003 41 21.5003 41.5 21.5003C42 21.5003 42.6 21.0003 43.1 21.2003C43.1 20.2003 42 20.4003 41.4 20.5003Z" fill="#E9ECF1"/>
<path d="M42.3 17.7998C42 17.7998 42 17.9998 42 18.2998C42.2 18.1998 42.2 17.9998 42.3 17.7998Z" fill="#E9ECF1"/>
<path d="M72.9 10.2996C73 10.0996 72.7 10.0996 72.5 10.0996C72.7 10.0996 72.7 10.2996 72.9 10.2996Z" fill="#E9ECF1"/>
<path d="M73.7 38.0996C73.2 38.0996 74.2 37.2996 73.4 37.2996H73.7C72.8 36.7996 72.9 35.0996 71.7 34.9996C71.8 34.9996 71.9 34.8996 71.9 34.7996C71.6 34.2996 72.6 34.0996 72.4 33.5996H70.9C71.4 33.3996 71.4 32.8996 71.6 32.5996C71.3 32.9996 70.7 32.9996 70.4 32.5996C70.7 33.0996 70.2 33.2996 69.9 33.7996C70.1 33.7996 70.1 33.7996 70.1 33.9996C69.7 34.4996 70.4 34.8996 70.1 35.2996C70.2 35.0996 70.4 34.9996 70.6 34.9996C70.9 35.4996 70.4 35.7996 70.4 36.2996C70.9 36.2996 71.1 35.7996 71.7 36.0996L71.4 36.3996C71.6 36.7996 71.7 37.1996 71.7 37.6996C71.3 37.6996 70.5 37.4996 70.7 38.1996H71.2C70.9 38.4996 71 38.6996 70.4 38.6996V39.1996C70.9 38.8996 71.4 39.4996 71.9 39.1996C71.4 39.6996 70.6 39.3996 70.1 40.1996C70.1 40.6996 70.4 40.1996 70.6 40.4996L70.9 40.1996L71.2 40.4996C71.7 39.0996 74.1 40.9996 74.5 39.4996H74C74.2 38.9996 74.7 38.9996 74.5 38.1996L73.7 38.0996Z" fill="#E9ECF1"/>
<path d="M73.3 17.8C73.6 17.7 73.8 18.1 73.8 17.7H73.3L73.5 17.5H72.8C72.8 17.6 72.8 17.8 73.3 17.8Z" fill="#E9ECF1"/>
<path d="M70.2 35.7998C69.3 35.7998 68.6 35.2998 68.1 36.2998H68.6C68.1 36.2998 68.1 36.5998 67.9 36.7998C67.9 36.2998 67.7 36.7998 67.4 36.4998V36.9998C67.9 37.2998 67.9 37.7998 67.6 38.2998C67.6 38.5998 67.1 37.9998 67.1 38.5998H67.6C67.4 38.5998 67.3 38.5998 67.1 38.6998C68 39.6998 68.4 38.5998 69.4 38.3998L69.6 38.6998C69.6 38.1998 69.6 37.6998 69.8 37.1998L69.6 36.8998C69.6 36.5998 69.8 36.5998 70.1 36.5998C70.1 36.2998 70.1 36.2998 69.9 36.2998C69.9 36.0998 69.9 35.7998 70.2 35.7998Z" fill="#E9ECF1"/>
<path d="M72.8 15.9004C72.7 16.2004 73 16.5004 73.1 16.8004C73.1 16.5004 73.1 16.1004 72.8 15.9004Z" fill="#E9ECF1"/>
<path d="M36.8 16.7998C37.2 16.9998 37.5 16.3998 37 16.2998C36.6 16.3998 36.4 16.6998 36.8 16.7998Z" fill="#E9ECF1"/>
<path d="M73.2 15.7998C73.2 15.7998 73.3 15.7998 73.3 15.8998C73.3 15.8998 73.3 15.8998 73.2 15.7998Z" fill="#E9ECF1"/>
<path d="M35.2 19.2004C34.8 18.7004 34.1 19.0004 33.8 19.7004H34C34.3 20.2004 34.7 19.9004 35.2 19.9004L35.4 19.6004C35.2 19.7004 35.2 19.5004 35.2 19.2004Z" fill="#E9ECF1"/>
<path d="M40.9 24.7C41.6 24.6 40.8 24.5 40.6 24.6C40.7 24.7 40.9 25 40.9 24.7Z" fill="#E9ECF1"/>
<path d="M37.2 20.0005C37.6 19.6005 37.6 19.9005 37.8 20.1005C38.5 19.6005 39.6 20.0005 40.3 19.5005C40.5 20.0005 41 19.7005 41.2 19.7005C41.7 19.7005 41 19.0005 41.9 19.2005C42.2 18.5005 41.4 19.5005 41.5 19.0005C41.8 19.0005 41.9 18.8005 42 18.5005C41.8 18.5005 41.3 18.5005 41.1 18.5005L41.3 18.3005C40.4 18.2005 39.5 18.4005 38.8 18.9005H39C38.5 19.2005 38.3 18.7005 37.9 18.7005C37.9 18.9005 37.7 18.9005 37.4 19.0005C37.2 18.5005 36.7 18.5005 36.5 18.3005C36.7 18.3005 37.2 18.5005 37.4 18.0005C36.7 18.5005 36.8 17.1005 36.1 17.6005C35.9 17.8005 35.7 17.9005 35.4 17.9005C35.2 17.2005 34.3 17.4005 33.8 17.5005C33.8 17.7005 33.8 17.7005 34 17.7005C33.8 17.7005 33.8 17.7005 33.8 18.0005C34.2 18.0005 34.2 18.5005 34.7 18.2005L34.5 18.5005C34.9 18.7005 35.2 18.2005 35.6 18.2005C36 18.7005 35.8 19.4005 35.8 19.9005C36.3 20.2005 36.7 19.9005 37.2 20.0005Z" fill="#E9ECF1"/>
<path d="M41.7 25.0004C41.8 24.8004 41.1 25.3004 41.1 25.5004C41.1 25.5004 41.7 25.1004 41.7 25.0004Z" fill="#E9ECF1"/>
<path d="M41 30.6002C40.8 30.5002 40.8 30.9001 41 30.9001C41.4 30.8001 41.3 30.4002 41 30.6002Z" fill="#E9ECF1"/>
<path d="M32.6 25.5C33.3 26.3 31.7 25.8 32.1 26.5C32.8 26.7 33.3 27.2 33.7 26.3C33.6 26.3 33.5 26.3 33.4 26.2C33.5 25.8 33.3 25.8 33 25.6L32.6 25.5Z" fill="#E9ECF1"/>
<path d="M35.5 16.3998C35.2 16.3998 34.8 16.3998 34.5 16.2998C34.3 16.6998 34.1 16.1998 34.1 16.6998C34.6 16.3998 35.1 17.1998 35.5 16.3998Z" fill="#E9ECF1"/>
<path d="M31.7 27.0001C32 26.9001 31.6 26.5001 31.7 27.0001Z" fill="#E9ECF1"/>
<path d="M33.2 20.7998C33.1 20.7998 32.9 20.7998 32.8 20.8998C32.7 20.8998 32.5 20.9998 32.4 20.9998C32.6 21.1998 33.2 21.1998 33.2 20.7998Z" fill="#E9ECF1"/>
<path d="M33.2 22.5V22H33.1C33.4 21.7 33.4 21.3 33.2 21C32.8 21.6 31.4 20.7 31.6 22C31.6 21.7 31.8 21.7 32.1 21.7C32.1 22 31.6 22.2 31.9 22.5C31.4 22.8 31.2 22 30.8 22V22.8C31.5 23.3 32.2 23.3 32.6 24.1L32.8 23.8L32.6 23.5H33.5C33.5 23.1 33.5 22.7 33.6 22.3C33.5 22.2 33.2 22.5 33.2 22.5Z" fill="#E9ECF1"/>
<path d="M33.9 19.1004C34 19.1004 34.2 19.2004 34.2 19.0004C34.3 18.8004 33.7 19.1004 33.7 19.1004C33.8 19.4004 33.8 19.1004 33.9 19.1004Z" fill="#E9ECF1"/>
<path d="M126.8 123.2C126.8 124.2 127.8 124.5 129.9 124.5C137.5 124.5 146.3 124 148.1 124C149.9 124 156.8 124.5 160.7 124.5C162.2 124.5 163.1 124.2 163.1 123.2C163.1 122.6 162.6 122.2 161.5 122.2H159.9C157.2 122.2 153.8 120.7 153.8 117.5C154 113.8 154.7 110.2 156.1 106.7L165.8 78.1998C166 77.4998 166.6 76.8998 167.4 76.8998H202.1C202.7 76.7998 203.3 77.1998 203.6 77.8998L218.6 117.6C219.6 120.2 218.6 121.6 217.6 122C217 122.2 216.5 122.5 216.5 123.1C216.5 124.1 218.3 124.1 221.3 124.2C232.4 124.5 244.2 124.5 246.6 124.5C248.4 124.5 249.8 124.2 249.8 123.2C249.8 122.4 249.2 122.2 248.2 122.2C246 122.2 243.8 121.9 241.8 121.2C238.4 120.2 233.7 117.7 227.9 103.3C218.1 78.7998 192.8 12.1998 190.3 6.0998C188.4 1.0998 187.7 0.299805 186.8 0.299805C185.9 0.299805 185.2 1.2998 183.3 6.5998L146.7 106.7C143.8 114.8 140.6 120.9 133.2 121.9C131.9 122.1 129.7 122.2 128.5 122.2C127.4 122.2 126.8 122.5 126.8 123.2ZM168.5 69.9998L182.7 26.4998C183.5 24.0998 184.3 24.0998 185.1 26.4998L200.4 69.9998C200.6 70.5998 200.6 71.0998 199.8 71.0998H169C168.5 71.0998 168.2 70.7998 168.5 69.9998Z" fill="#AFBED3"/>
<path d="M21.4 161.1C21.2 161.1 21 161.3 20.7 161.4C20 161.5 19.3 161.6 18.5 161.6C17.4 161.6 7.3 161.6 6.4 161.6C6.2 161.6 3 161.4 0.8 161.4C0.3 161.4 0 161.5 0 161.8C0 162 0.2 162.1 0.4 162.1C1 162.1 1.5 162.1 2.1 162.2C3.7 162.5 4.1 163.3 4.2 164.8C4.3 166.3 4.3 167.6 4.3 174.8V182.9C4.3 187.3 4.3 191 4 192.9C3.8 194.2 3.6 195.3 2.6 195.4C2.1 195.5 1.6 195.6 1.1 195.6C0.8 195.6 0.7 195.7 0.7 195.9C0.7 196.2 0.9 196.3 1.5 196.3C3 196.3 6.1 196.2 6.3 196.2C6.5 196.2 9.7 196.3 12.4 196.4C12.9 196.4 13.2 196.3 13.2 196C13.2 195.9 13.1 195.7 12.8 195.7C12.4 195.7 11.3 195.6 10.6 195.5C9.1 195.3 8.8 194.3 8.7 193C8.5 191.1 8.5 187.4 8.5 183V179.1C8.5 178.8 8.6 178.7 8.8 178.7C9.6 178.7 15 178.7 16.3 178.9C17.3 179 18.2 179.5 18.8 180.3C19 180.6 19.1 181 19.2 181.4C19.2 181.7 19.4 181.9 19.6 181.9C19.8 181.9 19.9 181.7 19.9 181.3C19.9 181 20 179.6 20.1 178.7C20.3 177.2 20.5 176.4 20.5 176.1C20.5 175.9 20.5 175.7 20.3 175.7C20.1 175.7 20 175.9 19.8 176.2C19.4 176.8 18.7 176.9 17.5 177C16.8 177 16.1 177 15.3 177H9C8.7 177 8.7 176.9 8.7 176.6V163.8C8.7 163.4 8.8 163.3 9.1 163.3L16.7 163.5C18.6 163.5 19.8 164.4 20.1 165C20.4 165.6 20.5 166.1 20.5 166.8C20.5 167.1 20.6 167.4 20.8 167.4C21.1 167.4 21.1 167.1 21.2 166.9C21.3 166.3 21.4 164.3 21.5 163.8C21.7 162.5 21.9 162 21.9 161.6C21.7 161.2 21.6 161.1 21.4 161.1Z" fill="#AFBED3"/>
<path d="M107.3 161.6C105.8 161.6 103.5 161.7 103.2 161.7C102.9 161.7 100.2 161.6 98 161.6C97.5 161.6 97.2 161.7 97.2 162C97.2 162.2 97.4 162.3 97.6 162.3C98.2 162.3 98.7 162.3 99.3 162.4C100.9 162.7 101.3 163.5 101.4 165C101.5 166.5 101.5 167.8 101.5 175V180.8C101.5 185.6 100.9 189.5 98.6 192.1C96.6 194.2 93.8 195.4 90.8 195.4C88.1 195.6 85.4 194.7 83.3 192.8C81.2 190.9 79.6 188 79.6 181.4V174.9C79.6 167.7 79.6 166.4 79.7 164.9C79.8 163.3 80.2 162.5 81.5 162.3C81.9 162.2 82.3 162.2 82.7 162.2C82.9 162.2 83.1 162.1 83.1 161.9C83.1 161.6 82.9 161.5 82.3 161.5C80.8 161.5 77.9 161.6 77.4 161.6C77 161.6 73.9 161.5 71.7 161.5C71.2 161.5 70.9 161.6 70.9 161.9C70.9 162.1 71.1 162.2 71.3 162.2C71.9 162.2 72.4 162.2 73 162.3C74.6 162.6 75 163.4 75.1 164.9C75.2 166.4 75.2 167.7 75.2 174.9V181.7C75.2 188.5 77.1 191.7 79.5 193.9C83 197 88 197.2 89.7 197.2C93.4 197.4 97 196.1 99.9 193.8C103.9 190.5 104.5 185 104.5 180V175C104.5 167.8 104.5 166.5 104.6 165C104.7 163.4 105.1 162.6 106.4 162.4C106.8 162.3 107.2 162.3 107.6 162.3C107.8 162.3 108 162.2 108 162C108 161.7 107.8 161.6 107.3 161.6Z" fill="#AFBED3"/>
<path d="M47.2 160.8C33.6 160.8 27.7 171.4 27.7 178.8C27.7 187.1 33.3 197 46.8 197C58.7 197 66.5 188.5 66.5 178.1C66.6 167.4 58.3 160.9 47.2 160.8ZM48.2 195.3C39.3 195.3 32.4 188.3 32.4 177.6C32.4 167.5 38.6 162.4 46.8 162.4C54.6 162.4 61.8 168.4 61.8 179.5C61.8 193 52.7 195.4 48.2 195.3Z" fill="#AFBED3"/>
<path d="M172.6 161.7C169.6 161.7 166.5 161.8 165.9 161.8C165.7 161.8 162.5 161.6 160.3 161.6C159.8 161.6 159.5 161.7 159.5 162C159.5 162.2 159.7 162.3 159.9 162.3C160.5 162.3 161 162.3 161.6 162.4C163.2 162.7 163.6 163.5 163.7 165C163.8 166.5 163.8 167.8 163.8 175V183.1C163.8 187.5 163.8 191.2 163.5 193.1C163.3 194.4 163.1 195.5 162.1 195.6C161.6 195.7 161.1 195.8 160.6 195.8C160.3 195.8 160.2 195.9 160.2 196.1C160.2 196.4 160.4 196.5 161 196.5C162.5 196.5 165.6 196.4 165.8 196.4C166.3 196.4 172.5 197 176.8 197C185.2 197 189.6 193.8 191.8 191.7C195.3 188.2 197.2 183.6 197.2 178.7C197.3 174.3 195.6 170 192.4 166.9C186.5 161.3 177.4 161.7 172.6 161.7ZM188.7 191.3C185.5 194.2 181.3 195.7 176.9 195.6C171.1 195.6 169.1 194.6 168.5 193.7C168.1 193.2 168 191.3 168 190.2C168 189.3 167.9 185.1 167.9 180.2V174.5C167.9 170.9 167.9 166.2 168 164.6C167.9 164.2 168.2 163.8 168.6 163.7C169.7 163.5 170.7 163.4 171.8 163.4C177.7 163.4 183.3 164.1 187.9 168.7C191 171.8 192.7 176 192.6 180.4C192.7 184.5 191.3 188.9 188.7 191.3Z" fill="#AFBED3"/>
<path d="M375.8 162.1C373.8 162.1 372.1 162.2 371.6 162.2C371.1 162.2 368.7 162.1 366.5 162.1C365.9 162.1 365.5 162.1 365.5 162.4C365.5 162.6 365.5 162.7 365.9 162.7C366.7 162.7 367.5 162.8 368.3 162.9C369.8 163.3 370.2 164.3 370.2 167.3L370.7 190.8C369.1 189.3 363.8 183.6 358.9 178.7C351.3 171 344 163.6 343.2 162.8C342.7 162.3 341.9 161.3 341.5 161.3C341.1 161.3 341 161.8 341 163.6L340.9 190.1C340.9 194.3 340.6 195.7 339.4 196C338.7 196.2 338.1 196.3 337.4 196.3C337.2 196.3 337 196.4 337 196.6C337 196.9 337.3 197 337.8 197C340 197 342.1 196.9 342.5 196.9C342.9 196.9 344.9 197 347.7 197C348.3 197 348.6 196.9 348.6 196.6C348.6 196.4 348.5 196.3 348.2 196.3C347.4 196.3 346.5 196.2 345.7 196C344.4 195.6 343.9 194.4 343.8 190.6L343.2 168.5C347.4 173 351.7 177.4 356.1 181.8C361.3 187.1 368.4 193.9 369 194.4C371.6 196.9 372.2 197.4 372.6 197.4C372.9 197.4 373 197.2 373.1 194.1L373.3 167C373.3 164.2 373.5 163.2 375.1 162.9C375.5 162.8 375.9 162.8 376.3 162.8C376.6 162.8 376.8 162.7 376.8 162.5C376.7 162.2 376.3 162.1 375.8 162.1Z" fill="#AFBED3"/>
<path d="M311.9 161.3C298.3 161.3 292.4 171.9 292.4 179.3C292.4 187.6 298 197.5 311.5 197.5C323.4 197.5 331.2 189 331.2 178.6C331.3 167.9 323 161.4 311.9 161.3ZM312.9 195.8C304 195.8 297.1 188.8 297.1 178.1C297.1 168 303.3 162.9 311.5 162.9C319.3 162.9 326.5 168.9 326.5 180C326.5 193.5 317.3 195.9 312.9 195.8Z" fill="#AFBED3"/>
<path d="M286.3 196.3C285.9 196.3 284.8 196.2 284.1 196.1C282.6 195.9 282.3 194.9 282.2 193.6C282 191.7 282 188 282 183.6V175.5C282 168.3 282 167 282.1 165.5C282.2 163.9 282.6 163.1 283.9 162.9C284.3 162.8 284.7 162.8 285.1 162.8C285.3 162.8 285.5 162.7 285.5 162.5C285.5 162.2 285.3 162.1 284.7 162.1C283.2 162.1 280.1 162.2 279.9 162.2C279.7 162.2 276.5 162.1 274.9 162.1C274.4 162.1 274.1 162.2 274.1 162.5C274.1 162.7 274.3 162.8 274.5 162.8C275 162.8 275.5 162.9 276 163C277.1 163.2 277.6 164 277.7 165.6C277.8 167.1 277.8 168.4 277.8 175.6V183.7C277.8 188.1 277.8 191.8 277.5 193.7C277.3 195 277 196.1 276.1 196.2C275.6 196.3 275.1 196.4 274.6 196.4C274.3 196.4 274.2 196.5 274.2 196.7C274.2 197 274.4 197.1 275 197.1C276.5 197.1 279.6 197 279.8 197C280 197 283.2 197.2 285.9 197.2C286.4 197.2 286.7 197.1 286.7 196.8C286.7 196.4 286.6 196.3 286.3 196.3Z" fill="#AFBED3"/>
<path d="M374.8 122.2C371.4 122.1 368 121.4 364.8 120.1C357.1 116.9 354.3 114.3 340.8 101.7C334.2 95.6004 300.7 60.9004 296.5 56.2004C299.9 52.2004 327.9 24.8004 332 20.9004C339.3 14.0004 342.8 9.90039 349.4 7.00039C352.2 5.70039 355.3 4.90039 358.4 4.70039C359.7 4.70039 360 4.40039 360 3.60039C360 2.80039 359.4 2.50039 357.6 2.50039C353.6 2.50039 342.9 3.00039 342.1 3.00039C338.2 3.00039 333.2 2.50039 330 2.50039C328.9 2.50039 328.1 2.80039 328.1 3.60039C328.1 4.20039 328.7 4.60039 329.6 4.90039C330.9 5.40039 331.7 6.40039 331.7 8.30039C331.7 11.0004 327.5 15.2004 323 19.9004C317.2 26.2004 288 55.8004 285.3 58.9004H284.7V49.2004C284.7 24.1004 284.7 19.5004 285 14.4004C285.3 8.80039 286.6 6.00039 291 5.20039C292.3 4.90039 293.7 4.80039 295 4.70039C295.6 4.70039 296.3 4.40039 296.3 3.70039C296.3 2.70039 295.5 2.40039 293.7 2.40039C288.9 2.40039 279.5 2.90039 278.1 2.90039C277.1 2.90039 267.6 2.40039 260.4 2.40039C258.6 2.40039 257.8 2.70039 257.8 3.70039C257.8 4.30039 258.4 4.70039 259.1 4.70039C260.9 4.70039 262.8 4.90039 264.6 5.20039C269.9 6.30039 271.2 8.90039 271.5 14.4004C271.8 19.6004 271.8 24.1004 271.8 49.2004V77.6004C271.8 93.1004 271.8 105.8 271 112.6C270.4 117.3 269.5 120.8 266.3 121.5C264.7 121.9 263.1 122.1 261.5 122.1C260.5 122.1 260.2 122.6 260.2 123.1C260.2 124.1 261 124.4 262.8 124.4C267.6 124.4 277 123.9 278.3 123.9C279.6 123.9 288.9 124.4 296.8 124.4C298.6 124.4 299.4 123.9 299.4 123.1C299.4 122.6 299.1 122.1 298.1 122.1C296 122 293.9 121.8 291.8 121.5C287 120.9 286 117.3 285.5 112.6C284.7 105.8 284.7 93.1004 284.7 77.6004V61.9004H285.5C293.2 71.4004 327.4 108.3 334.7 114.3C341.6 119.8 345.7 123.3 354.2 124.1C357.7 124.4 360.8 124.4 365.3 124.4H373.5C376.2 124.4 377 123.9 377 123.1C376.9 122.5 376 122.2 374.8 122.2Z" fill="#AFBED3"/>
<path d="M265.6 161.6C265.1 161.7 264.7 161.7 264.2 161.8C263 161.9 261.9 162 260.7 162H242.2C241.6 162 239.7 161.9 238.3 161.8C237.6 161.7 236.8 161.5 236.1 161.2C235.9 161.2 235.7 161.8 235.6 162.1C235.5 162.5 234.5 166.4 234.5 166.9C234.5 167.2 234.6 167.3 234.7 167.3C234.9 167.3 235 167.2 235.2 166.8C235.4 166.3 235.7 165.8 236 165.4C236.8 164.3 238 164 241 163.9L248.3 163.8V183.4C248.3 187.8 248.3 191.5 248 193.4C247.8 194.7 247.6 195.8 246.6 195.9C246.1 196 245.6 196.1 245.1 196.1C244.8 196.1 244.7 196.2 244.7 196.4C244.7 196.7 244.9 196.8 245.5 196.8C247 196.8 250.1 196.7 250.3 196.7C250.5 196.7 253.7 196.8 256.4 196.9C256.9 196.9 257.2 196.8 257.2 196.5C257.2 196.4 257.1 196.2 256.8 196.2C256.4 196.2 255.3 196.1 254.6 196C253.1 195.8 252.8 194.8 252.7 193.5C252.5 191.6 252.5 187.9 252.5 183.5V163.9L258.7 164C263.4 164.1 264.6 165.2 264.8 166.6V167.1C264.8 167.7 264.9 167.9 265.2 167.9C265.4 167.9 265.5 167.7 265.5 167.3C265.5 166.8 265.7 163.6 265.7 162.2C265.8 161.8 265.8 161.6 265.6 161.6Z" fill="#AFBED3"/>
<path d="M151.6 161.7C149.6 161.7 147.9 161.8 147.4 161.8C146.9 161.8 144.5 161.7 142.3 161.7C141.7 161.7 141.3 161.7 141.3 162C141.3 162.2 141.3 162.3 141.7 162.3C142.5 162.3 143.3 162.4 144.1 162.5C145.6 162.9 146 163.9 146 166.9L146.5 190.4C144.9 188.9 139.6 183.2 134.7 178.3C127.1 170.6 119.8 163.2 119 162.4C118.5 161.9 117.7 160.9 117.3 160.9C116.9 160.9 116.8 161.4 116.8 163.2L116.7 189.7C116.7 193.9 116.4 195.2 115.2 195.6C114.5 195.8 113.9 195.9 113.2 195.9C112.9 195.9 112.8 196 112.8 196.2C112.8 196.5 113.1 196.6 113.6 196.6C115.8 196.6 117.9 196.5 118.3 196.5C118.7 196.5 120.7 196.6 123.5 196.6C124.1 196.6 124.4 196.5 124.4 196.2C124.4 196 124.3 195.9 124 195.9C123.2 195.9 122.3 195.8 121.5 195.6C120.2 195.2 119.7 194 119.6 190.2L119 168.1C123.2 172.6 127.5 177 131.9 181.4C137.1 186.7 144.2 193.5 144.8 194C147.4 196.5 148 197 148.4 197C148.7 197 148.8 196.8 148.9 193.7L149 166.6C149 163.8 149.2 162.8 150.8 162.5C151.2 162.4 151.6 162.4 152 162.4C152.3 162.4 152.5 162.3 152.5 162.1C152.5 161.7 152.1 161.7 151.6 161.7Z" fill="#AFBED3"/>
<path d="M235.5 196.2C234.8 196.2 234.2 196.1 233.5 195.9C232.5 195.6 231 194.9 229.3 190.8C226.3 183.8 218.6 164.6 217.8 162.9C217.2 161.5 217 161.2 216.7 161.2C216.4 161.2 216.2 161.5 215.6 163L204.3 191.7C203.4 194 202.4 195.8 200.1 196C199.7 196 199 196.1 198.7 196.1C198.5 196.1 198.3 196.2 198.3 196.4C198.3 196.7 198.6 196.8 199.2 196.8C201.5 196.8 204.2 196.7 204.8 196.7C205.3 196.7 207.5 196.8 208.7 196.8C209.1 196.8 209.4 196.7 209.4 196.4C209.4 196.2 209.3 196.1 208.9 196.1H208.4C207.6 196.1 206.5 195.7 206.5 194.8C206.6 193.7 206.8 192.7 207.2 191.7L210.2 183.5C210.3 183.3 210.5 183.1 210.7 183.1H221.3C221.5 183.1 221.7 183.2 221.7 183.4L226.3 194.8C226.6 195.5 226.3 196 226 196C225.8 196 225.7 196.1 225.7 196.3C225.7 196.6 226.2 196.6 227.2 196.6C230.6 196.7 234.2 196.7 235 196.7C235.5 196.7 236 196.6 236 196.3C236 196.2 235.8 196.2 235.5 196.2ZM220.8 181.5H211.4C211.3 181.5 211.2 181.4 211.3 181.2L215.7 168.7C215.9 168 216.2 168 216.4 168.7L221.1 181.2C221 181.3 221 181.5 220.8 181.5Z" fill="#AFBED3"/>
<path d="M65.2 0C20.7 0 1.70001 36.9 1.70001 63C1.70001 92 20.1 126.3 64.2 126.3C103 126.3 128.5 96.5 128.5 60.4C128.5 22.9 101.5 0 65.2 0ZM68.6 120.2C39.6 120.2 17 96 17 58.5C17 23.2 37.1 5.5 64.1 5.5C89.6 5.5 113.1 26.3 113.1 65C113.1 111.9 83.1 120.2 68.6 120.2Z" fill="#AFBED3"/>
</g>
<defs>
<clipPath id="clip0_751_125">
<rect width="376.9" height="197.6" fill="white"/>
</clipPath>
</defs>
</svg>
